<?xml version="1.0" encoding="UTF-8" standalone="no"?>
<!-- Created with Inkscape (http://www.inkscape.org/) -->

<svg
   xmlns:dc="http://purl.org/dc/elements/1.1/"
   xmlns:cc="http://creativecommons.org/ns#"
   xmlns:rdf="http://www.w3.org/1999/02/22-rdf-syntax-ns#"
   xmlns:svg="http://www.w3.org/2000/svg"
   xmlns="http://www.w3.org/2000/svg"
   xmlns:sodipodi="http://sodipodi.sourceforge.net/DTD/sodipodi-0.dtd"
   xmlns:inkscape="http://www.inkscape.org/namespaces/inkscape"
   width="1000"
   height="1000"
   viewBox="0 0 264.58332 264.58334"
   version="1.1"
   id="svg8"
   inkscape:version="0.91 r13725"
   sodipodi:docname="bootstrap.svg">
  <defs
     id="defs2">
    <clipPath
       clipPathUnits="userSpaceOnUse"
       id="clipPath36">
      <path
         d="m 0,141.732 141.732,0 L 141.732,0 0,0 0,141.732 Z"
         id="path38"
         inkscape:connector-curvature="0" />
    </clipPath>
  </defs>
  <sodipodi:namedview
     id="base"
     pagecolor="#ffffff"
     bordercolor="#666666"
     borderopacity="1.0"
     inkscape:pageopacity="0.0"
     inkscape:pageshadow="2"
     inkscape:zoom="0.25"
     inkscape:cx="-922.24536"
     inkscape:cy="442.65309"
     inkscape:document-units="mm"
     inkscape:current-layer="layer25"
     showgrid="false"
     units="px"
     inkscape:window-width="1366"
     inkscape:window-height="708"
     inkscape:window-x="0"
     inkscape:window-y="0"
     inkscape:window-maximized="1"
     showguides="false"
     inkscape:guide-bbox="true" />
  <metadata
     id="metadata5">
    <rdf:RDF>
      <cc:Work
         rdf:about="">
        <dc:format>image/svg+xml</dc:format>
        <dc:type
           rdf:resource="http://purl.org/dc/dcmitype/StillImage" />
        <dc:title />
      </cc:Work>
    </rdf:RDF>
  </metadata>
  <g
     inkscape:groupmode="layer"
     id="layer25"
     inkscape:label="background"
     style="display:inline">
    <circle
       style="opacity:0.95;fill:#ffffff;fill-opacity:0.48627451;stroke:#ffffff;stroke-width:3.59625006;stroke-miterlimit:4;stroke-dasharray:none;stroke-opacity:1"
       id="path6009"
       cx="132.29164"
       cy="127"
       r="114.37157" />
  </g>
  <g
     inkscape:groupmode="layer"
     id="layer28"
     inkscape:label="what">
    <g
       id="g28"
       transform="matrix(1.4270017,0,0,-1.4270018,120.28572,59.78951)" />
    <g
       style="display:inline"
       id="g6050"
       transform="matrix(0.45350608,0,0,0.45350612,73.751313,70.848699)">
      <path
         id="path6052"
         d="M 0,222.99122 C 0,241.22347 14.778532,256 33.008775,256 l 189.982445,0 C 241.22347,256 256,241.22147 256,222.99122 L 256,33.008775 C 256,14.776526 241.22147,0 222.99122,0 L 33.008775,0 C 14.776526,0 0,14.778532 0,33.008775 L 0,222.99122 Z"
         inkscape:connector-curvature="0"
         style="fill:#563d7c" />
      <path
         id="path6054"
         d="m 106.15756,113.2381 0,-36.253506 31.91177,0 c 3.03923,0 5.96987,0.253265 8.79201,0.759804 2.82215,0.506538 5.31862,1.411058 7.4895,2.713585 2.17088,1.302528 3.90756,3.111567 5.21008,5.427171 1.30253,2.315605 1.95379,5.282428 1.95379,8.90056 0,6.512636 -1.95377,11.216136 -5.86135,14.110646 -3.90758,2.8945 -8.90053,4.34174 -14.97899,4.34174 l -34.51681,0 0,0 z M 72.07493,50.5 l 0,155 75.11204,0 c 6.94682,0 13.71262,-0.86834 20.29762,-2.60504 6.585,-1.73671 12.44629,-4.41408 17.58404,-8.03222 5.13774,-3.61813 9.22617,-8.28545 12.2654,-14.0021 3.03923,-5.71664 4.55883,-12.48245 4.55883,-20.29762 0,-9.69659 -2.35175,-17.98199 -7.05533,-24.85644 -4.70357,-6.87445 -11.83118,-11.68649 -21.38305,-14.43627 6.94681,-3.32868 12.19303,-7.59801 15.7388,-12.80812 3.54577,-5.21011 5.31863,-11.722655 5.31863,-19.53782 0,-7.236264 -1.19397,-13.314635 -3.58194,-18.235294 -2.38797,-4.92066 -5.75278,-8.864365 -10.09454,-11.831233 -4.34175,-2.966868 -9.55179,-5.101534 -15.63025,-6.404062 C 159.12672,51.151254 152.3971,50.5 145.01611,50.5 l -72.94118,0 0,0 z m 34.08263,128.51541 0,-42.54902 37.12185,0 c 7.38099,0 13.31464,1.70049 17.80112,5.10154 4.48649,3.40104 6.72969,9.08142 6.72969,17.04131 0,4.05231 -0.68743,7.38094 -2.06232,9.986 -1.37489,2.60505 -3.22011,4.66736 -5.53572,6.18697 -2.3156,1.51962 -4.99298,2.60504 -8.03221,3.2563 -3.03923,0.65127 -6.22314,0.9769 -9.55182,0.9769 l -36.47059,0 0,0 z"
         inkscape:connector-curvature="0"
         style="fill:#ffffff" />
    </g>
  </g>
</svg>
