<?xml version="1.0" encoding="UTF-8" standalone="no"?>
<!-- Created with Inkscape (http://www.inkscape.org/) -->

<svg
   xmlns:dc="http://purl.org/dc/elements/1.1/"
   xmlns:cc="http://creativecommons.org/ns#"
   xmlns:rdf="http://www.w3.org/1999/02/22-rdf-syntax-ns#"
   xmlns:svg="http://www.w3.org/2000/svg"
   xmlns="http://www.w3.org/2000/svg"
   xmlns:sodipodi="http://sodipodi.sourceforge.net/DTD/sodipodi-0.dtd"
   xmlns:inkscape="http://www.inkscape.org/namespaces/inkscape"
   width="300"
   height="300"
   viewBox="0 0 300 300"
   id="svg2"
   version="1.1"
   inkscape:version="0.91 r13725"
   sodipodi:docname="cloud2.svg">
  <defs
     id="defs4" />
  <sodipodi:namedview
     id="base"
     pagecolor="#ffffff"
     bordercolor="#666666"
     borderopacity="1.0"
     inkscape:pageopacity="0.0"
     inkscape:pageshadow="2"
     inkscape:zoom="2.8"
     inkscape:cx="159.47124"
     inkscape:cy="177.51152"
     inkscape:document-units="px"
     inkscape:current-layer="layer1"
     showgrid="false"
     units="px"
     inkscape:window-width="1366"
     inkscape:window-height="708"
     inkscape:window-x="0"
     inkscape:window-y="0"
     inkscape:window-maximized="1" />
  <metadata
     id="metadata7">
    <rdf:RDF>
      <cc:Work
         rdf:about="">
        <dc:format>image/svg+xml</dc:format>
        <dc:type
           rdf:resource="http://purl.org/dc/dcmitype/StillImage" />
        <dc:title></dc:title>
      </cc:Work>
    </rdf:RDF>
  </metadata>
  <g
     inkscape:label="Layer 1"
     inkscape:groupmode="layer"
     id="layer1"
     transform="translate(0,-752.36216)">
    <path
       style="opacity:1;fill:#ffffff;fill-opacity:1;stroke:#c8c8c8;stroke-width:12.16063023;stroke-miterlimit:4;stroke-dasharray:none;stroke-opacity:0"
       d="m 121.07059,806.64704 a 45.357143,48.57143 0 0 0 -45.271483,46.7832 50,46.785713 0 0 0 -44.371094,46.43164 50,46.785713 0 0 0 50,46.78515 50,46.785713 0 0 0 24.078127,-5.83984 44.642857,45.714287 0 0 0 39.85156,25.12695 44.642857,45.714287 0 0 0 38.58594,-22.8125 35.714287,36.785713 0 0 0 28.19922,14.24024 35.714287,36.785713 0 0 0 35.71484,-36.78516 35.714287,36.785713 0 0 0 -31.24023,-36.46094 41.785713,43.214287 0 0 0 4.09766,-18.53906 41.785713,43.214287 0 0 0 -41.78711,-43.21484 41.785713,43.214287 0 0 0 -20.39454,5.55664 45.357143,48.57143 0 0 0 -37.46289,-21.27148 z"
       id="path4136"
       inkscape:connector-curvature="0" />
    <path
       style="opacity:1;fill:#f3f3f3;fill-opacity:1;stroke:#c8c8c8;stroke-width:12.16063023;stroke-miterlimit:4;stroke-dasharray:none;stroke-opacity:0"
       d="m 230.24331,952.38421 c -0.0356,-0.013 -0.0719,-0.026 -0.10743,-0.0391 -3.29143,-1.20732 -6.54525,-2.47175 -9.7207,-3.875 -3.17545,-1.40326 -6.27163,-2.94637 -9.25,-4.71094 -2.97837,-1.76457 -5.83886,-3.74976 -8.53906,-6.04102 -1.3501,-1.14563 -2.66043,-2.36747 -3.92578,-3.67578 -1.26535,-1.30831 -2.48579,-2.70365 -3.65625,-4.19531 -1.17047,-1.49166 -2.29003,-3.07971 -3.35547,-4.77539 -1.06544,-1.69568 -2.07707,-3.49955 -3.02735,-5.41992 -0.95028,-1.92038 -1.83907,-3.95731 -2.66406,-6.12305 -0.82498,-2.16574 -1.58584,-4.45884 -2.27539,-6.89063 2.72243,-0.5644 5.24318,-1.35196 7.58399,-2.34375 2.3408,-0.99178 4.50155,-2.18892 6.50195,-3.57617 2.0004,-1.38724 3.84174,-2.96405 5.54297,-4.71484 1.70122,-1.75079 3.2618,-3.67539 4.70508,-5.75781 -2.71177,1.43067 -5.38907,2.70136 -8.0293,3.7832 -2.64023,1.08184 -5.24305,1.97426 -7.80664,2.65234 -2.5636,0.67809 -5.08648,1.14191 -7.56836,1.36133 -2.48188,0.21943 -4.92329,0.19454 -7.31836,-0.0996 -2.39507,-0.29415 -4.7437,-0.85806 -7.04688,-1.7207 -2.30317,-0.86264 -4.55943,-2.02373 -6.76562,-3.50977 -2.20619,-1.48603 -4.36268,-3.29658 -6.4668,-5.46093 -2.10412,-2.16436 -4.15734,-4.6825 -6.1543,-7.58008 -1.0254,2.6175 -2.22012,4.81675 -3.55273,6.66015 -1.33261,1.84341 -2.80253,3.33193 -4.37891,4.52735 -1.57638,1.19542 -3.25891,2.09792 -5.01562,2.77148 -1.75671,0.67356 -3.58735,1.11672 -5.46094,1.39453 -1.87359,0.27782 -3.78976,0.39025 -5.7168,0.39844 -1.92703,0.008 -3.86421,-0.0873 -5.78124,-0.22266 -3.83408,-0.27064 -7.58463,-0.7011 -10.99805,-0.78906 1.78813,1.67369 3.29024,3.48548 4.52344,5.39649 1.23319,1.911 2.19733,3.92057 2.90429,5.99023 0.70697,2.06966 1.15774,4.198 1.36719,6.34766 0.20945,2.14965 0.17732,4.31971 -0.082,6.4707 -0.25935,2.15099 -0.74588,4.28377 -1.44531,6.35742 -0.69944,2.07366 -1.61186,4.0882 -2.72266,6.00586 -1.1108,1.91766 -2.4206,3.73887 -3.91406,5.42188 -1.49346,1.683 -3.17018,3.22797 -5.01758,4.59765 0.0167,0.0824 0.0379,0.15223 0.0547,0.23438 2.05353,15.24463 22.32678,26.6025 39.44277,26.61152 15.91325,-0.0185 30.86632,-9.40599 38.83848,-23.50884 6.76038,8.97737 16.7224,13.69778 27.75279,13.70451 6.36859,-0.0143 13.06405,-2.31812 18.54604,-5.6568 z"
       id="path4256"
       inkscape:connector-curvature="0"
       sodipodi:nodetypes="ccsssssssscssscssssssscsssscccssscsssccccccc" />
  </g>
</svg>
