<?xml version="1.0" encoding="UTF-8" standalone="no"?>
<!-- Created with Inkscape (http://www.inkscape.org/) -->

<svg
   xmlns:dc="http://purl.org/dc/elements/1.1/"
   xmlns:cc="http://creativecommons.org/ns#"
   xmlns:rdf="http://www.w3.org/1999/02/22-rdf-syntax-ns#"
   xmlns:svg="http://www.w3.org/2000/svg"
   xmlns="http://www.w3.org/2000/svg"
   xmlns:sodipodi="http://sodipodi.sourceforge.net/DTD/sodipodi-0.dtd"
   xmlns:inkscape="http://www.inkscape.org/namespaces/inkscape"
   width="1000"
   height="1000"
   viewBox="0 0 264.58332 264.58334"
   version="1.1"
   id="svg8"
   inkscape:version="0.91 r13725"
   sodipodi:docname="css.svg">
  <defs
     id="defs2">
    <clipPath
       clipPathUnits="userSpaceOnUse"
       id="clipPath36">
      <path
         d="m 0,141.732 141.732,0 L 141.732,0 0,0 0,141.732 Z"
         id="path38"
         inkscape:connector-curvature="0" />
    </clipPath>
  </defs>
  <sodipodi:namedview
     id="base"
     pagecolor="#ffffff"
     bordercolor="#666666"
     borderopacity="1.0"
     inkscape:pageopacity="0.0"
     inkscape:pageshadow="2"
     inkscape:zoom="0.25"
     inkscape:cx="-317.00465"
     inkscape:cy="795.0205"
     inkscape:document-units="mm"
     inkscape:current-layer="layer25"
     showgrid="false"
     units="px"
     inkscape:window-width="1366"
     inkscape:window-height="711"
     inkscape:window-x="0"
     inkscape:window-y="0"
     inkscape:window-maximized="1"
     showguides="false"
     inkscape:guide-bbox="true" />
  <metadata
     id="metadata5">
    <rdf:RDF>
      <cc:Work
         rdf:about="">
        <dc:format>image/svg+xml</dc:format>
        <dc:type
           rdf:resource="http://purl.org/dc/dcmitype/StillImage" />
        <dc:title />
      </cc:Work>
    </rdf:RDF>
  </metadata>
  <g
     inkscape:groupmode="layer"
     id="layer25"
     inkscape:label="background"
     style="display:inline">
    <circle
       style="opacity:0.95;fill:#ffffff;fill-opacity:0.48627451;stroke:#ffffff;stroke-width:3.59625001;stroke-miterlimit:4;stroke-dasharray:none;stroke-opacity:1"
       id="path6009"
       cx="132.29164"
       cy="127"
       r="114.37157" />
  </g>
  <g
     inkscape:groupmode="layer"
     id="layer29"
     inkscape:label="css"
     style="opacity:1">
    <g
       id="g6230"
       transform="matrix(0.44710088,0,0,0.44710089,74.310581,46.121784)"
       style="">
      <path
         id="path6232"
         d="M 127.84387,360.08791 23.661714,331.16624 0.44518681,70.765714 l 255.10962319,0 -23.24114,260.359736 -104.4698,28.96246 0,0 z"
         inkscape:connector-curvature="0"
         style="fill:#264de4" />
      <path
         id="path6234"
         d="m 212.4167,314.54664 19.8611,-222.489321 -104.2778,0 0,245.892921 84.4167,-23.4036 0,0 z"
         inkscape:connector-curvature="0"
         style="fill:#2965f1" />
      <path
         id="path6236"
         d="m 53.668571,188.63613 2.862418,31.9367 71.469011,0 0,-31.9367 -74.331429,0 0,0 z"
         inkscape:connector-curvature="0"
         style="fill:#ebebeb" />
      <path
         id="path6238"
         d="m 47.917011,123.99473 2.903209,31.9374 77.17978,0 0,-31.9374 -80.082989,0 0,0 z"
         inkscape:connector-curvature="0"
         style="fill:#ebebeb" />
      <path
         id="path6240"
         d="m 128,271.58013 -0.13996,0.0373 -35.568524,-9.60422 -2.273758,-25.4713 -32.05978,0 4.474374,50.14576 65.420658,18.16123 0.14699,-0.0408 0,-33.22796 0,0 z"
         inkscape:connector-curvature="0"
         style="fill:#ebebeb" />
      <path
         id="path6242"
         d="m 60.483516,0 38.681319,0 0,16.175824 -22.505494,0 0,16.175824 22.505494,0 0,16.175825 -38.681319,0 0,-48.527473 0,0 z"
         inkscape:connector-curvature="0"
         style="fill:#000000" />
      <path
         id="path6244"
         d="m 106.9011,0 38.68132,0 0,14.065934 -22.5055,0 0,2.813187 22.5055,0 0,32.351648 -38.68132,0 0,-14.76923 22.50549,0 0,-2.813187 -22.50549,0 0,-31.648352 0,0 z"
         inkscape:connector-curvature="0"
         style="fill:#000000" />
      <path
         id="path6246"
         d="M 153.31868,0 192,0 l 0,14.065934 -22.5055,0 0,2.813187 22.5055,0 0,32.351648 -38.68132,0 0,-14.76923 22.5055,0 0,-2.813187 -22.5055,0 0,-31.648352 0,0 z"
         inkscape:connector-curvature="0"
         style="fill:#000000" />
      <path
         id="path6248"
         d="m 202.12677,188.63613 5.76563,-64.6414 -80.00282,0 0,31.9374 45.00255,0 -2.90602,32.704 -42.09653,0 0,31.9367 39.32695,0 -3.70708,41.41996 -35.61987,9.61407 0,33.22655 65.47271,-18.14576 0.48035,-5.39569 7.50488,-84.07983 0.77925,-8.576 0,0 z"
         inkscape:connector-curvature="0"
         style="fill:#ffffff" />
    </g>
  </g>
</svg>
