<?xml version="1.0" encoding="UTF-8" standalone="no"?>
<!-- Created with Inkscape (http://www.inkscape.org/) -->

<svg
   xmlns:dc="http://purl.org/dc/elements/1.1/"
   xmlns:cc="http://creativecommons.org/ns#"
   xmlns:rdf="http://www.w3.org/1999/02/22-rdf-syntax-ns#"
   xmlns:svg="http://www.w3.org/2000/svg"
   xmlns="http://www.w3.org/2000/svg"
   xmlns:sodipodi="http://sodipodi.sourceforge.net/DTD/sodipodi-0.dtd"
   xmlns:inkscape="http://www.inkscape.org/namespaces/inkscape"
   width="744.09448"
   height="1052.3622"
   viewBox="0 0 210 297"
   version="1.1"
   id="svg988"
   inkscape:version="0.91 r13725"
   sodipodi:docname="first_img.svg"
   inkscape:export-filename="/home/marszka/Obrazy/Grafiki/marszka6.png"
   inkscape:export-xdpi="90"
   inkscape:export-ydpi="90">
  <defs
     id="defs982" />
  <sodipodi:namedview
     id="base"
     pagecolor="#ffffff"
     bordercolor="#666666"
     borderopacity="1.0"
     inkscape:pageopacity="0.0"
     inkscape:pageshadow="2"
     inkscape:zoom="0.5"
     inkscape:cx="244.51127"
     inkscape:cy="394.60651"
     inkscape:document-units="mm"
     inkscape:current-layer="layer16"
     showgrid="false"
     inkscape:window-width="1366"
     inkscape:window-height="708"
     inkscape:window-x="0"
     inkscape:window-y="0"
     inkscape:window-maximized="1"
     showguides="true"
     inkscape:guide-bbox="true"
     units="px">
    <sodipodi:guide
       position="112.71249,263.82485"
       orientation="0,1"
       id="guide4309" />
    <sodipodi:guide
       position="100.25458,34.000246"
       orientation="0,1"
       id="guide4311" />
  </sodipodi:namedview>
  <metadata
     id="metadata985">
    <rdf:RDF>
      <cc:Work
         rdf:about="">
        <dc:format>image/svg+xml</dc:format>
        <dc:type
           rdf:resource="http://purl.org/dc/dcmitype/StillImage" />
        <dc:title />
      </cc:Work>
    </rdf:RDF>
  </metadata>
  <g
     inkscape:groupmode="layer"
     id="layer15"
     inkscape:label="shadow 1"
     transform="translate(0,1.1144966e-5)">
    <ellipse
       style="opacity:1;fill:#0f0b12;fill-opacity:1;fill-rule:nonzero;stroke:#ae5841;stroke-width:1.48259878;stroke-miterlimit:4;stroke-dasharray:none;stroke-opacity:0"
       id="path192"
       cx="108.21458"
       cy="252.81459"
       rx="37.150368"
       ry="18.229061" />
  </g>
  <g
     inkscape:groupmode="layer"
     id="layer31"
     inkscape:label="shadow"
     style="display:inline"
     transform="translate(0,1.1144966e-5)">
    <path
       style="display:inline;opacity:1;fill:#ffffff;fill-opacity:1;fill-rule:nonzero;stroke:#ae5841;stroke-width:1.69999993;stroke-miterlimit:4;stroke-dasharray:none;stroke-opacity:0"
       d="m 104.0625,31.109375 c -25.707092,-0.0051 -48.043672,18.196241 -58.902344,40.59375 -14.07464,28.510395 -16.549705,62.949625 -5.970703,93.003905 3.955607,10.07914 9.50414,21.83953 20.779297,25.17774 6.447151,5.85156 13.946412,11.2964 22.8125,12.45507 -2.304324,-3.18342 -5.145843,-5.83801 -7.935547,-8.57226 3.890503,3.24558 9.490806,4.56346 13.427735,6.70898 0.528654,3.89994 4.05999,7.26932 1.882812,11.14649 -1.445585,8.5056 -0.288852,17.43138 2.337891,25.5332 -0.323825,4.70665 -2.868224,8.75663 -3.646485,13.41992 -1.982632,-1.88752 -0.132049,4.19885 -0.919922,6.26758 1.662969,7.08931 11.304316,7.00772 16.808596,4.94531 2.66275,-0.88259 4.5302,-3.48062 4.38086,-6.28515 5.9081,4.93107 15.45562,5.889 21.78515,1.67578 0.61665,-1.48715 3.14574,-5.2608 0.97266,-4.56836 -1.01518,-5.63894 -8.00107,-6.62056 -10.79492,-10.74805 1.21201,-3.40312 -3.16772,-0.41043 -3.30078,-3.91016 -1.14181,-1.64737 -5.28195,0.0323 -4.26172,-3.13281 1.22407,-8.15838 5.65599,-15.40781 7.76562,-23.32422 -0.33938,-3.57896 -0.58264,-6.68661 3.86328,-7.35547 20.72513,-11.15596 34.14562,-32.06116 44.69532,-52.25976 8.84322,-19.88138 17.36417,-42.24151 11.27734,-64.226563 -4.4853,-19.850969 -16.04669,-39.046999 -33.70312,-49.771485 -8.65963,-5.251739 -19.1092,-6.646496 -28.9803,-5.548906 -4.7337,-0.886058 -9.55666,-1.320916 -14.37322,-1.224531 z m 22.55078,161.595705 c -1.43213,3.62759 -3.51659,6.94589 -5.67969,10.17383 -1.78792,-4.55635 3.44631,-5.72808 5.00391,-9.20508 0.16134,-0.12735 1.20815,-2.18342 0.67578,-0.96875 z m -21.9414,13.6914 c 0.8711,2.5005 3.4458,4.741 0.66406,7.14063 -1.40921,2.97724 -2.37203,5.59254 -1.94385,0.4961 0.39832,-2.48762 1.45573,-5.40396 1.27979,-7.63673 z m 10.91015,33.14844 c 0.26278,4.30935 -1.95574,-0.13167 0,0 z"
       id="rect870-3"
       inkscape:connector-curvature="0" />
  </g>
  <g
     inkscape:groupmode="layer"
     id="layer33"
     inkscape:label="planeta 1"
     transform="translate(0,1.1144966e-5)" />
  <g
     inkscape:groupmode="layer"
     id="layer32"
     inkscape:label="planeta"
     transform="translate(0,1.1144966e-5)" />
  <g
     inkscape:groupmode="layer"
     id="layer4"
     inkscape:label="hair 1"
     style="display:inline;opacity:1"
     transform="translate(0,1.1144966e-5)">
    <path
       style="opacity:1;fill:#120d0e;fill-opacity:1;fill-rule:nonzero;stroke:#ae5841;stroke-width:1.69999993;stroke-miterlimit:4;stroke-dasharray:none;stroke-opacity:0"
       d="m 158.8727,152.71814 c -4.91777,21.48943 -12.61094,35.84474 -35.51454,50.12557 7.36991,-11.05224 8.19922,-18.13872 4.80216,-24.5599 -0.15056,10.7322 -5.12903,18.9604 -12.71638,21.21092 3.44969,-5.40046 7.00911,-21.75116 2.16958,-31.00412 1.34126,6.14643 -5.633,24.61987 -12.57111,30.99081 1.40129,-6.00939 -1.17941,-8.60078 -7.12158,-16.72681 -4.267921,13.41397 3.76687,15.83616 3.24104,15.8847 0,0 -9.591293,-1.83979 -10.774532,-15.72004 -1.284364,9.88142 1.345696,11.04112 3.49925,14.7032 -9.787589,-5.51072 -24.290691,-16.93277 -25.162115,-28.04724 -2.21874,11.21441 12.468208,23.2366 18.7217,28.0903 C 75.326021,185.94198 55.603588,173.00678 52.88202,150.70105 34.583328,-6.8392852 219.69113,35.240609 158.8727,152.71814 Z"
       id="rect870"
       inkscape:connector-curvature="0"
       sodipodi:nodetypes="cccccccccccccc" />
    <path
       style="opacity:1;fill:#803300;fill-opacity:1;fill-rule:nonzero;stroke:#ae5841;stroke-width:1.69999993;stroke-miterlimit:4;stroke-dasharray:none;stroke-opacity:0"
       d="m 101.5072,133.13757 c -13.614258,24.50899 -13.357954,54.18482 -7.620612,64.4849 -18.624906,-16.81665 -6.834744,-58.24869 7.620612,-64.4849 z"
       id="rect1062"
       inkscape:connector-curvature="0"
       sodipodi:nodetypes="ccc" />
    <path
       style="opacity:1;fill:#803300;fill-opacity:1;fill-rule:nonzero;stroke:#ae5841;stroke-width:1.69999993;stroke-miterlimit:4;stroke-dasharray:none;stroke-opacity:0"
       d="m 101.5072,133.13757 c -12.389917,27.90818 -13.31715,58.69361 -0.34533,65.50174 -17.428882,-0.89709 -17.356081,-61.25629 0.34533,-65.50174 z"
       id="rect1065"
       inkscape:connector-curvature="0"
       sodipodi:nodetypes="ccc" />
    <path
       style="opacity:1;fill:#d45500;fill-opacity:1;fill-rule:nonzero;stroke:#ae5841;stroke-width:1.69999993;stroke-miterlimit:4;stroke-dasharray:none;stroke-opacity:0"
       d="m 109.46118,133.2201 c 2.87508,15.33255 19.14138,50.64142 -4.41877,66.26132 13.58732,-18.95679 7.62652,-43.92092 4.41877,-66.26132 z"
       id="rect1067"
       inkscape:connector-curvature="0"
       sodipodi:nodetypes="ccc" />
    <path
       style="opacity:1;fill:#803300;fill-opacity:1;fill-rule:nonzero;stroke:#ae5841;stroke-width:1.69999993;stroke-miterlimit:4;stroke-dasharray:none;stroke-opacity:0"
       d="m 109.46118,133.2201 c 7.94547,8.95929 23.89307,52.02365 5.98276,66.27463 9.19054,-18.65299 -0.62543,-32.97372 -5.98276,-66.27463 z"
       id="rect1069"
       inkscape:connector-curvature="0"
       sodipodi:nodetypes="ccc" />
    <path
       style="opacity:1;fill:#803300;fill-opacity:1;fill-rule:nonzero;stroke:#ae5841;stroke-width:1.69999993;stroke-miterlimit:4;stroke-dasharray:none;stroke-opacity:0"
       d="m 130.86962,115.69476 c 11.25094,15.96568 19.40341,70.13825 -7.51146,87.14895 13.19134,-14.64672 22.47533,-59.40734 7.51146,-87.14895 z"
       id="rect1071"
       inkscape:connector-curvature="0"
       sodipodi:nodetypes="ccc" />
  </g>
  <g
     inkscape:groupmode="layer"
     id="layer13"
     inkscape:label="glove_left"
     style="display:inline"
     transform="translate(0,1.1144966e-5)">
    <path
       style="opacity:1;fill:#ececec;fill-opacity:1;fill-rule:nonzero;stroke:#ae5841;stroke-width:1.69999993;stroke-miterlimit:4;stroke-dasharray:none;stroke-opacity:0"
       d="m 83.638237,168.03866 c 4.946961,2.96397 9.659483,6.54655 14.211423,10.55286 5.13389,5.121 -0.181037,3.92292 -1.271868,5.24804 -5.409226,-3.51157 -12.447052,-8.47959 -19.747326,-11.05695 0.443884,-3.15139 1.777884,-4.31317 6.807771,-4.74395 z"
       id="rect43"
       inkscape:connector-curvature="0"
       sodipodi:nodetypes="ccccc" />
  </g>
  <g
     inkscape:groupmode="layer"
     id="layer6"
     inkscape:label="szyja"
     style="display:inline"
     transform="translate(0,1.1144966e-5)">
    <path
       style="opacity:1;fill:#caad98;fill-opacity:1;fill-rule:nonzero;stroke:#ae5841;stroke-width:1.69999993;stroke-miterlimit:4;stroke-dasharray:none;stroke-opacity:0"
       d="m 92.018306,138.16936 18.205194,2.04842 c -0.0994,2.45385 -4.19343,4.13231 0.0363,7.1757 4.6435,-0.32049 4.73798,6.07805 -0.56949,7.48051 -3.94254,1.19335 -21.786081,-3.77175 -20.686683,-10.45948 0.51495,-0.52552 3.027038,0.15337 4.318847,0.61974 0.507503,-1.86638 -0.696345,-4.49908 -1.304188,-6.86489 z"
       id="rect895"
       inkscape:connector-curvature="0"
       sodipodi:nodetypes="cccccccc" />
  </g>
  <g
     inkscape:groupmode="layer"
     id="layer14"
     inkscape:label="arm"
     style="display:inline"
     transform="translate(0,1.1144966e-5)">
    <path
       style="opacity:1;fill:#cccccc;fill-opacity:1;fill-rule:nonzero;stroke:#ae5841;stroke-width:1.69999993;stroke-miterlimit:4;stroke-dasharray:none;stroke-opacity:0"
       d="m 119.57671,165.36227 -5.64055,-16.9692 c 5.0602,1.89634 10.68507,4.40612 15.98364,18.57135 l -2.47018,7.42366 c -4.38745,-1.17988 -5.33693,-5.92558 -7.87291,-9.02581 z"
       id="rect45"
       inkscape:connector-curvature="0"
       sodipodi:nodetypes="ccccc" />
  </g>
  <g
     inkscape:groupmode="layer"
     id="layer7"
     inkscape:label="blouse"
     style="display:inline;opacity:1"
     transform="translate(0,1.1144966e-5)">
    <path
       style="opacity:1;fill:#f2f2f2;fill-opacity:1;fill-rule:nonzero;stroke:#ae5841;stroke-width:1.69999993;stroke-miterlimit:4;stroke-dasharray:none;stroke-opacity:0"
       d="m 89.003627,144.41451 c 7.116938,6.96981 21.263003,7.47839 21.256193,2.97897 3.12337,-0.88834 11.4335,6.04454 10.88411,12.38986 -0.0282,2.78292 -1.48564,3.95451 -2.55616,5.59719 -1.03045,2.00589 -5.68186,6.62409 -2.99911,14.28683 l 1.36913,3.91064 c -9.492,1.91141 -17.021912,-4.57059 -25.499213,-6.99985 6.214505,-6.94136 2.527848,-11.82394 -0.540486,-17.22278 -2.501146,3.09107 -5.046587,6.299 -7.279883,8.68329 -3.261282,0.57601 -5.8943,1.71383 -6.807771,4.74395 -1.243142,-0.42578 -2.389409,-0.94685 -2.277843,-2.70515 2.821697,-12.48659 7.577323,-21.58411 14.451033,-25.66295 z"
       id="rect899"
       inkscape:connector-curvature="0"
       sodipodi:nodetypes="ccccsccccccc" />
    <path
       style="opacity:1;fill:#cccccc;fill-opacity:1;fill-rule:nonzero;stroke:#ae5841;stroke-width:1.69999993;stroke-miterlimit:4;stroke-dasharray:none;stroke-opacity:0"
       d="m 109.47435,159.15606 c 0.61966,4.08559 8.75941,5.54416 11.80155,1.3125 -0.0826,0.51208 -0.59738,3.55571 -1.69919,4.89371 -0.93237,1.72475 -7.07104,4.56775 -9.61835,0.14859 -4.22593,4.38936 -8.06568,3.87498 -11.773449,1.16774 -4.323275,-3.71895 -4.889262,-5.27951 -7.26682,-7.32323 8.035891,7.02548 17.929829,10.16633 18.556259,-0.19931 z"
       id="rect857"
       inkscape:connector-curvature="0"
       sodipodi:nodetypes="ccccccc" />
    <path
       style="opacity:1;fill:#ffffff;fill-opacity:1;fill-rule:nonzero;stroke:#ae5841;stroke-width:1.69999993;stroke-miterlimit:4;stroke-dasharray:none;stroke-opacity:0"
       d="m 121.07778,157.60053 c -2.05505,5.66781 -7.71215,7.03024 -11.51841,-0.089 0.42744,13.4093 13.78014,7.22295 11.51841,0.089 z"
       id="rect964"
       inkscape:connector-curvature="0"
       sodipodi:nodetypes="ccc" />
    <path
       style="opacity:1;fill:#ffffff;fill-opacity:1;fill-rule:nonzero;stroke:#ae5841;stroke-width:1.69999993;stroke-miterlimit:4;stroke-dasharray:none;stroke-opacity:0"
       d="m 109.55937,157.51154 c 1.79336,10.97876 -10.378539,10.51047 -15.642551,4.16785 4.093922,0.40342 12.998021,4.04691 15.642551,-4.16785 z"
       id="rect1005"
       inkscape:connector-curvature="0"
       sodipodi:nodetypes="ccc" />
    <path
       style="opacity:1;fill:#cccccc;fill-opacity:1;fill-rule:nonzero;stroke:#ae5841;stroke-width:1.69999993;stroke-miterlimit:4;stroke-dasharray:none;stroke-opacity:0"
       d="m 89.003627,144.41451 c 1.380266,0.89307 2.348243,1.43274 3.587732,2.69356 -8.22716,0.3573 -10.801793,6.11281 -15.357697,13.82132 2.887848,-6.87303 4.970143,-12.38005 11.769965,-16.51488 z"
       id="rect1029"
       inkscape:connector-curvature="0"
       sodipodi:nodetypes="cccc" />
    <path
       style="opacity:1;fill:#cccccc;fill-opacity:1;fill-rule:nonzero;stroke:#ae5841;stroke-width:1.69999993;stroke-miterlimit:4;stroke-dasharray:none;stroke-opacity:0"
       d="m 109.55937,157.51154 c 4.26482,1.92538 1.51967,10.73776 -3.438,9.78801 3.88295,-2.03873 4.11298,-5.7202 3.438,-9.78801 z"
       id="rect4686"
       inkscape:connector-curvature="0"
       sodipodi:nodetypes="ccc" />
  </g>
  <g
     inkscape:groupmode="layer"
     id="layer24"
     inkscape:label="krawat"
     transform="translate(0,1.1144966e-5)">
    <path
       style="opacity:1;fill:#000000;fill-opacity:1;fill-rule:nonzero;stroke:#ae5841;stroke-width:1.41547227;stroke-miterlimit:4;stroke-dasharray:none;stroke-opacity:0"
       d="m 101.27726,150.08026 c 2.3207,-1.30018 6.38761,-1.29618 7.16963,-0.47863 0.68589,0.7631 0.55102,2.85619 -0.454,4.36549 -1.25047,0.48406 -2.36645,0.72456 -3.19011,0.7653 -2.89522,-1.40828 -3.04089,-2.22883 -3.52552,-4.65216 z"
       id="rect683"
       inkscape:connector-curvature="0"
       sodipodi:nodetypes="ccccc" />
    <path
       style="opacity:1;fill:#000000;fill-opacity:1;fill-rule:nonzero;stroke:#ae5841;stroke-width:1.69999993;stroke-miterlimit:4;stroke-dasharray:none;stroke-opacity:0"
       d="m 104.80278,154.73242 3.19011,-0.7653 c 1.39345,1.73786 2.99897,2.93089 4.26583,8.4928 -0.13504,3.44859 -1.18934,3.17048 -2.62881,5.45422 -0.14755,-0.2004 -1.0972,0.1662 -3.1985,-3.50404 0.50688,-3.05121 -0.45978,-6.66202 -1.62863,-9.67768 z"
       id="rect686"
       inkscape:connector-curvature="0"
       sodipodi:nodetypes="cccccc" />
  </g>
  <g
     inkscape:groupmode="layer"
     id="layer16"
     inkscape:label="ass"
     style="display:inline;opacity:1"
     transform="translate(0,1.1144966e-5)">
    <path
       style="opacity:1;fill:#2e2e2e;fill-opacity:1;fill-rule:nonzero;stroke:#ae5841;stroke-width:1.69999993;stroke-miterlimit:4;stroke-dasharray:none;stroke-opacity:0"
       d="m 92.407683,175.40647 c 9.667267,3.3887 14.268117,8.93494 24.550107,8.17153 2.92121,19.78639 1.25843,12.73851 2.35176,26.80116 -0.002,1.52549 -0.3418,2.26964 -0.63497,3.26641 -0.51613,1.75477 -0.88664,2.32461 -1.46938,3.50831 -3.24653,6.59458 -6.36134,18.77777 -6.43135,21.95 l -6.62599,-0.27251 c -2.40187,-18.21449 2.71559,-19.78983 4.89578,-28.17364 -3.80818,-6.09298 -3.03296,-8.4106 -6.49038,-17.95648 -0.17066,4.62645 0.37244,5.47962 0.30625,9.1182 -0.0763,4.1935 -0.48164,5.0512 -0.40693,6.2458 0.0799,1.27802 -0.0773,2.15528 -1.08918,4.47151 -0.0672,3.01493 0.16022,8.01772 -0.008,12.64429 -0.20254,5.56876 -0.81755,10.76706 -1.08063,13.60726 l -5.241583,-0.12924 c -1.567705,-5.98718 -5.814266,-16.37678 -1.732105,-30.27978 -1.916983,-5.5794 -2.422874,-6.19372 -4.003906,-12.85163 -1.980777,-6.90993 -1.212903,-14.55894 3.110507,-20.12119 z"
       id="rect861"
       inkscape:connector-curvature="0"
       sodipodi:nodetypes="cccssccccsscsccccc" />
    <path
       style="opacity:1;fill:#181616;fill-opacity:1;fill-rule:nonzero;stroke:#ae5841;stroke-width:6.42519665;stroke-miterlimit:4;stroke-dasharray:none;stroke-opacity:0"
       d="m 384.04688,687.03125 c -6.81727,8.51769 -26.97539,21.20017 -44.01758,12.37305 l -0.88282,3.53515 c 22.01312,6.60125 35.57629,-1.64449 45.57813,-10.94726 -2.61699,11.91414 -4.98903,29.194 2.87891,36.32812 l 9.47265,-0.48242 c 6.1008,0.23297 5.94444,-21.47687 6.4043,-29.69141 l -0.99219,-3.53906 c -1.95058,6.22439 -3.29673,28.8199 -6.25976,29.71875 -1.60502,0.4424 -4.80061,0.4525 -6.97852,0.0586 -3.92655,0.0255 -6.52598,-23.67436 1,-33.34375 0,0 -4.01091,-2.87734 -6.20312,-4.00977 z"
       transform="scale(0.26458333,0.26458333)"
       id="rect1013"
       inkscape:connector-curvature="0"
       sodipodi:nodetypes="cccccccccccc" />
    <path
       style="opacity:1;fill:#181616;fill-opacity:1;fill-rule:nonzero;stroke:#ae5841;stroke-width:1.69999993;stroke-miterlimit:4;stroke-dasharray:none;stroke-opacity:0"
       d="m 92.407683,175.40647 1.016515,0.36379 c -1.576358,3.95783 -3.006099,6.70931 -3.633558,10.37726 -0.682524,5.36737 1.180046,6.48504 1.561635,9.13522 0.694564,4.82381 2.391137,10.15294 4.665287,12.93048 -4.576612,5.37325 -1.493833,26.95331 0.420449,30.25158 l -1.293209,-0.80855 c -2.764883,-3.64771 -5.617124,-21.90897 -1.84372,-29.27696 -1.443815,-3.10028 -3.443123,-7.37386 -3.870227,-12.91825 -1.060591,-2.89612 -2.677075,-5.25746 -1.618121,-9.7649 0.857552,-3.65017 2.693811,-8.84084 4.594949,-10.28967 z"
       id="rect4641"
       inkscape:connector-curvature="0"
       sodipodi:nodetypes="cccscccccsc" />
    <path
       style="opacity:1;fill:#181616;fill-opacity:1;fill-rule:nonzero;stroke:#ae5841;stroke-width:1.69999993;stroke-miterlimit:4;stroke-dasharray:none;stroke-opacity:0"
       d="m 110.70296,184.47644 c 1.03981,4.67773 4.9566,7.60224 7.55503,7.13127 0.0969,0.2436 0.17449,0.68255 0.13252,1.0792 -2.53075,0.42772 -7.62845,-2.11641 -8.45202,-8.56987 z"
       id="rect4644"
       inkscape:connector-curvature="0"
       sodipodi:nodetypes="ccccc" />
    <path
       style="opacity:1;fill:#181616;fill-opacity:1;fill-rule:nonzero;stroke:#ae5841;stroke-width:6.42519665;stroke-miterlimit:4;stroke-dasharray:none;stroke-opacity:0"
       d="m 388.14062,729.79883 c 6.66792,23.45707 11.75858,48.48956 23.99219,66.38672 -5.31042,11.74756 -15.79092,27.45618 -17.61719,41.5664 -5.2622,20.25786 -3.02345,45.80185 -0.88671,64.91797 8e-4,-1.6e-4 5.62317,-0.77761 5.62317,-0.77761 -0.10108,-34.5124 -6.74759,-71.89481 26.77917,-105.58958 -20.64079,-23.26189 -23.89905,-43.89591 -33.75391,-60.40039 -1.25548,-2.10262 -2.61753,-4.13801 -4.13672,-6.10351 z"
       transform="scale(0.26458333,0.26458333)"
       id="rect4692"
       inkscape:connector-curvature="0"
       sodipodi:nodetypes="ccccscsc" />
  </g>
  <g
     inkscape:groupmode="layer"
     id="layer25"
     inkscape:label="nogi"
     style="opacity:0.32300002"
     transform="translate(0,1.1144966e-5)" />
  <g
     inkscape:groupmode="layer"
     id="layer20"
     inkscape:label="but2"
     style="display:inline;opacity:1"
     transform="translate(0,1.1144966e-5)">
    <path
       style="opacity:1;fill:#ffffff;fill-opacity:1;fill-rule:nonzero;stroke:#ae5841;stroke-width:1.69999993;stroke-miterlimit:4;stroke-dasharray:none;stroke-opacity:0"
       d="m 103.16684,243.96498 7.05399,4.89453 c 3.84636,2.98232 9.46857,5.50426 19.13257,2.86569 1.15734,2.04033 0.44347,3.71674 -0.47511,4.76067 -2.83541,0.29985 -6.36386,1.71527 -9.17496,1.2523 -6.59725,-1.60206 -9.79685,-3.7264 -12.49753,-6.50617 l -4.86856,-3.71514 z"
       id="rect1372"
       inkscape:connector-curvature="0"
       sodipodi:nodetypes="cccccccc" />
    <path
       style="opacity:1;fill:#120219;fill-opacity:1;fill-rule:nonzero;stroke:#ae5841;stroke-width:1.69999993;stroke-miterlimit:4;stroke-dasharray:none;stroke-opacity:0"
       d="m 103.92089,238.19751 c 0.66988,-0.99731 10.09895,-2.26697 10.44867,2.64331 -1.05889,3.80795 -2.77238,-0.74733 0.11455,0.15206 2.81068,2.46436 6.24479,3.97232 8.73485,5.61867 2.13665,1.41269 2.20601,0.95599 5.69991,4.28449 1.72929,1.93365 -2.22153,3.02025 -3.96016,3.26626 -7.0106,0.83739 -12.21678,-3.54661 -17.41774,-6.82875 -2.39386,-1.64815 -2.49491,-1.96834 -4.37413,-3.36857 -0.0255,-1.76835 -0.12741,-2.59755 0.75405,-5.76747 z"
       id="rect1369"
       inkscape:connector-curvature="0"
       sodipodi:nodetypes="cccsccccc" />
    <path
       style="display:inline;opacity:1;fill:#000000;fill-opacity:1;fill-rule:nonzero;stroke:#ae5841;stroke-width:1.69999993;stroke-miterlimit:4;stroke-dasharray:none;stroke-opacity:0"
       d="m 108.968,249.38611 c 3.42479,2.45468 5.71465,4.69184 9.39653,5.42452 1.89499,0.3771 4.35292,0.76143 7.3299,0.166 1.31534,-0.26308 2.91768,-0.81947 4.19922,-1.54629 0.12972,0.24766 0.0181,0.72285 0.0247,0.72067 -1.6807,0.7106 -2.97452,1.19611 -4.22905,1.44612 -2.95353,0.5886 -5.35758,0.26745 -7.55091,-0.30899 -3.33007,-0.8748 -6.09876,-2.87393 -9.26184,-5.33503 -1.75291,-1.21854 -3.39904,-2.46795 -5.39934,-3.61502 l -1.31858,-1.71164 z"
       id="rect1375-1"
       inkscape:connector-curvature="0"
       sodipodi:nodetypes="cssccsscccc" />
    <path
       style="display:inline;opacity:1;fill:#000000;fill-opacity:1;fill-rule:nonzero;stroke:#ae5841;stroke-width:1.69999993;stroke-miterlimit:4;stroke-dasharray:none;stroke-opacity:0"
       d="m 101.51651,246.88544 c 3.69392,2.97491 7.22831,5.07241 11.55461,8.3002 0.75409,0.5662 3.50613,1.71039 6.34731,1.99228 4.07225,0.40402 5.75511,-0.0636 9.98092,-1.39076 -0.059,0.20346 -0.21909,0.36952 -0.34548,0.51902 -0.0185,0.0219 -0.0371,0.0428 -0.0557,0.0628 -10e-4,9.6e-4 -0.002,0.002 -0.003,0.004 -0.0397,0.0424 -0.0793,0.0804 -0.11688,0.11289 -5.25433,1.69163 -10.74693,2.29661 -16.21289,-0.87416 -3.92281,-2.57428 -7.60619,-5.50374 -11.14869,-8.72577 z"
       id="rect1378-2"
       inkscape:connector-curvature="0"
       sodipodi:nodetypes="ccscssscccc" />
    <path
       style="opacity:1;fill:#ffffff;fill-opacity:1;fill-rule:nonzero;stroke:#ae5841;stroke-width:1.69999993;stroke-miterlimit:4;stroke-dasharray:none;stroke-opacity:0"
       d="m 124.9531,248.11007 c 1.58888,0.72242 2.25109,1.58644 3.17704,2.49847 2.0157,1.81193 -0.69297,2.76964 -2.68131,2.9992 -2.48432,0.21819 -4.57049,0.17509 -6.72228,-0.60341 1.80019,-2.58695 3.89915,-4.53377 6.22655,-4.89426 z"
       id="rect1428"
       inkscape:connector-curvature="0"
       sodipodi:nodetypes="ccccc" />
    <ellipse
       style="opacity:1;fill:#ffffff;fill-opacity:1;fill-rule:nonzero;stroke:#ae5841;stroke-width:1.69999993;stroke-miterlimit:4;stroke-dasharray:none;stroke-opacity:0"
       id="path1433"
       cx="129.02763"
       cy="245.56601"
       rx="1.0172946"
       ry="0.91205722"
       transform="matrix(0.99917995,0.04048989,-0.04048989,0.99917995,0,0)" />
    <ellipse
       style="display:inline;opacity:1;fill:#ffffff;fill-opacity:1;fill-rule:nonzero;stroke:#ae5841;stroke-width:1.52967286;stroke-miterlimit:4;stroke-dasharray:none;stroke-opacity:0"
       id="path1433-9"
       cx="126.79428"
       cy="243.97577"
       rx="0.91536951"
       ry="0.82067603"
       transform="matrix(0.99917995,0.04048989,-0.04048989,0.99917995,0,0)" />
    <ellipse
       style="display:inline;opacity:1;fill:#000000;fill-opacity:1;fill-rule:nonzero;stroke:#ae5841;stroke-width:1.3454715;stroke-miterlimit:4;stroke-dasharray:none;stroke-opacity:0"
       id="path1433-94"
       cx="129.05957"
       cy="245.56996"
       rx="0.80514175"
       ry="0.72185117"
       transform="matrix(0.99917995,0.04048989,-0.04048989,0.99917995,0,0)" />
    <ellipse
       style="display:inline;opacity:1;fill:#000000;fill-opacity:1;fill-rule:nonzero;stroke:#ae5841;stroke-width:1.21030974;stroke-miterlimit:4;stroke-dasharray:none;stroke-opacity:0"
       id="path1433-9-7"
       cx="126.78259"
       cy="243.97577"
       rx="0.72425985"
       ry="0.64933634"
       transform="matrix(0.99917995,0.04048989,-0.04048989,0.99917995,0,0)" />
    <ellipse
       style="display:inline;opacity:1;fill:#ffffff;fill-opacity:1;fill-rule:nonzero;stroke:#ae5841;stroke-width:1.18901885;stroke-miterlimit:4;stroke-dasharray:none;stroke-opacity:0"
       id="path1433-9-8"
       cx="124.93508"
       cy="242.13997"
       rx="0.71151918"
       ry="0.6379137"
       transform="matrix(0.99917995,0.04048989,-0.04048989,0.99917995,0,0)" />
    <ellipse
       style="display:inline;opacity:1;fill:#000000;fill-opacity:1;fill-rule:nonzero;stroke:#ae5841;stroke-width:0.940777;stroke-miterlimit:4;stroke-dasharray:none;stroke-opacity:0"
       id="path1433-9-7-4"
       cx="124.92599"
       cy="242.13997"
       rx="0.56296915"
       ry="0.50473088"
       transform="matrix(0.99917995,0.04048989,-0.04048989,0.99917995,0,0)" />
    <ellipse
       style="display:inline;opacity:1;fill:#ffffff;fill-opacity:1;fill-rule:nonzero;stroke:#ae5841;stroke-width:1.10385537;stroke-miterlimit:4;stroke-dasharray:none;stroke-opacity:0"
       id="path1433-9-5"
       cx="123.12267"
       cy="240.36263"
       rx="0.66055661"
       ry="0.59222311"
       transform="matrix(0.99917995,0.04048989,-0.04048989,0.99917995,0,0)" />
    <ellipse
       style="display:inline;opacity:1;fill:#000000;fill-opacity:1;fill-rule:nonzero;stroke:#ae5841;stroke-width:0.87339383;stroke-miterlimit:4;stroke-dasharray:none;stroke-opacity:0"
       id="path1433-9-7-0"
       cx="123.11423"
       cy="240.36263"
       rx="0.52264643"
       ry="0.46857953"
       transform="matrix(0.99917995,0.04048989,-0.04048989,0.99917995,0,0)" />
    <ellipse
       style="display:inline;opacity:1;fill:#ffffff;fill-opacity:1;fill-rule:nonzero;stroke:#ae5841;stroke-width:1.10385537;stroke-miterlimit:4;stroke-dasharray:none;stroke-opacity:0"
       id="path1433-9-5-3"
       cx="121.79807"
       cy="238.15762"
       rx="0.66055667"
       ry="0.59222317"
       transform="matrix(0.99917995,0.04048989,-0.04048989,0.99917995,0,0)" />
    <ellipse
       style="display:inline;opacity:1;fill:#000000;fill-opacity:1;fill-rule:nonzero;stroke:#ae5841;stroke-width:0.87339383;stroke-miterlimit:4;stroke-dasharray:none;stroke-opacity:0"
       id="path1433-9-7-0-6"
       cx="121.78964"
       cy="238.15762"
       rx="0.52264643"
       ry="0.46857956"
       transform="matrix(0.99917995,0.04048989,-0.04048989,0.99917995,0,0)" />
    <ellipse
       style="display:inline;opacity:1;fill:#ffffff;fill-opacity:1;fill-rule:nonzero;stroke:#ae5841;stroke-width:1.10385537;stroke-miterlimit:4;stroke-dasharray:none;stroke-opacity:0"
       id="path1433-9-5-1"
       cx="120.22279"
       cy="235.88419"
       rx="0.66055667"
       ry="0.59222317"
       transform="matrix(0.99917995,0.04048989,-0.04048989,0.99917995,0,0)" />
    <ellipse
       style="display:inline;opacity:1;fill:#000000;fill-opacity:1;fill-rule:nonzero;stroke:#ae5841;stroke-width:0.87339383;stroke-miterlimit:4;stroke-dasharray:none;stroke-opacity:0"
       id="path1433-9-7-0-0"
       cx="120.21436"
       cy="235.88419"
       rx="0.52264643"
       ry="0.46857956"
       transform="matrix(0.99917995,0.04048989,-0.04048989,0.99917995,0,0)" />
    <path
       style="opacity:1;fill:#ffffff;fill-opacity:1;fill-rule:nonzero;stroke:#ae5841;stroke-width:1.69999993;stroke-miterlimit:4;stroke-dasharray:none;stroke-opacity:0"
       d="m 121.91876,245.75956 c 0.29352,0.11078 0.63459,0.0595 0.78418,0.66068 -1.56643,0.98319 -2.50393,2.33864 -2.95016,3.98486 -0.44013,0.17456 -0.87205,0.14639 -1.287,-0.30041 0.62851,-1.88702 1.88815,-3.24419 3.45298,-4.34513 z"
       id="rect1573"
       inkscape:connector-curvature="0"
       sodipodi:nodetypes="ccccc" />
    <path
       style="opacity:1;fill:#ffffff;fill-opacity:1;fill-rule:nonzero;stroke:#ae5841;stroke-width:1.69999993;stroke-miterlimit:4;stroke-dasharray:none;stroke-opacity:0"
       d="m 116.94662,248.27105 c 1.9873,-1.34391 4.25462,-1.69054 6.74314,-1.24936 0.55359,0.1427 0.59941,0.33243 0.80694,0.50718 -2.57521,-0.161 -5.05172,0.0413 -7.1696,1.56307 -0.32483,-0.20239 -0.56646,-0.25881 -0.38048,-0.82089 z"
       id="rect1576"
       inkscape:connector-curvature="0"
       sodipodi:nodetypes="ccccc" />
    <path
       style="opacity:1;fill:#ffffff;fill-opacity:1;fill-rule:nonzero;stroke:#ae5841;stroke-width:1.69999993;stroke-miterlimit:4;stroke-dasharray:none;stroke-opacity:0"
       d="m 115.10188,246.5728 c 0.90002,-1.37605 1.87811,-2.66521 4.26602,-3.21313 0.51432,0.0248 0.56033,0.34936 0.63543,0.65555 -2.17501,0.5289 -3.29261,1.96599 -4.66293,3.20604 z"
       id="rect1578"
       inkscape:connector-curvature="0"
       sodipodi:nodetypes="ccccc" />
    <path
       style="opacity:1;fill:#ffffff;fill-opacity:1;fill-rule:nonzero;stroke:#ae5841;stroke-width:1.69999993;stroke-miterlimit:4;stroke-dasharray:none;stroke-opacity:0"
       d="m 115.10188,246.5728 c 1.96518,-1.09552 4.33854,-1.09528 6.81688,-0.81324 l 0.78418,0.66068 c -2.53011,-0.23307 -5.03834,-0.32207 -7.36254,0.80102 -0.30981,-0.17972 -0.37276,-0.39849 -0.23852,-0.64846 z"
       id="rect1580"
       inkscape:connector-curvature="0"
       sodipodi:nodetypes="ccccc" />
    <path
       style="opacity:1;fill:#ffffff;fill-opacity:1;fill-rule:nonzero;stroke:#ae5841;stroke-width:1.69999993;stroke-miterlimit:4;stroke-dasharray:none;stroke-opacity:0"
       d="m 113.34389,244.67312 5.66203,-1.97064 -0.0455,1.12161 -5.32479,1.44598 z"
       id="rect1582"
       inkscape:connector-curvature="0"
       sodipodi:nodetypes="ccccc" />
    <path
       style="opacity:1;fill:#ffffff;fill-opacity:1;fill-rule:nonzero;stroke:#ae5841;stroke-width:1.69999993;stroke-miterlimit:4;stroke-dasharray:none;stroke-opacity:0"
       d="m 113.34389,244.67312 c 1.95163,-0.85054 3.69562,-1.76699 6.02401,-1.31345 l 0.63543,0.65555 c -2.53911,-0.15044 -4.28409,0.32585 -6.36765,1.25485 -0.49355,-0.15277 -0.37635,-0.37676 -0.29179,-0.59695 z"
       id="rect1584"
       inkscape:connector-curvature="0"
       sodipodi:nodetypes="ccccc" />
    <path
       style="opacity:1;fill:#ffffff;fill-opacity:1;fill-rule:nonzero;stroke:#ae5841;stroke-width:1.69999993;stroke-miterlimit:4;stroke-dasharray:none;stroke-opacity:0"
       d="m 113.34389,244.67312 c 0.84678,-1.38227 1.74062,-2.73857 3.94012,-3.37454 0.5409,0.1168 0.37208,0.3965 0.47159,0.61463 -2.10301,0.4306 -2.92098,2.07341 -4.11992,3.35686 z"
       id="rect1586"
       inkscape:connector-curvature="0"
       sodipodi:nodetypes="ccccc" />
    <path
       style="opacity:1;fill:#ffffff;fill-opacity:1;fill-rule:nonzero;stroke:#ae5841;stroke-width:1.69999993;stroke-miterlimit:4;stroke-dasharray:none;stroke-opacity:0"
       d="m 110.66211,240.1067 c 2.28117,-0.12595 4.13791,-0.0269 6.06522,0.97709 l 0.0449,0.57796 c -2.08671,-0.68446 -3.77319,-0.78749 -5.97639,-0.77178 -0.25139,-0.19655 -0.494,-0.39583 -0.13376,-0.78327 z"
       id="rect1588"
       inkscape:connector-curvature="0"
       sodipodi:nodetypes="ccccc" />
    <path
       style="opacity:1;fill:#ffffff;fill-opacity:1;fill-rule:nonzero;stroke:#ae5841;stroke-width:1.69999993;stroke-miterlimit:4;stroke-dasharray:none;stroke-opacity:0"
       d="m 111.96623,242.43517 c 1.71851,-0.9372 3.47524,-1.47986 5.31778,-1.13659 l 0.47159,0.61463 c -1.83342,-0.0246 -3.6105,0.32953 -5.30528,1.23668 z"
       id="rect131"
       inkscape:connector-curvature="0"
       sodipodi:nodetypes="ccccc" />
    <path
       style="opacity:1;fill:#ffffff;fill-opacity:1;fill-rule:nonzero;stroke:#ae5841;stroke-width:1.69999993;stroke-miterlimit:4;stroke-dasharray:none;stroke-opacity:0"
       d="m 111.96623,242.43517 c 0.88055,-1.67173 1.68079,-2.53986 3.81756,-3.37359 0.68001,0.19957 0.68845,0.81975 0.2718,0.78291 -2.24517,0.6622 -2.54432,2.08401 -3.60532,3.30539 z"
       id="rect137"
       inkscape:connector-curvature="0"
       sodipodi:nodetypes="ccccc" />
  </g>
  <g
     inkscape:groupmode="layer"
     id="layer21"
     inkscape:label="belt"
     style="display:inline"
     transform="translate(0,1.1144966e-5)">
    <path
       style="opacity:1;fill:#120219;fill-opacity:1;fill-rule:nonzero;stroke:#ae5841;stroke-width:1.69999993;stroke-miterlimit:4;stroke-dasharray:none;stroke-opacity:0"
       d="m 92.364029,175.13519 c 9.367151,1.66571 15.155291,8.53703 24.593761,8.44281 0.55459,1.31802 0.73175,2.62571 0.59623,3.85489 -10.04362,0.2148 -17.22353,-6.08308 -27.708937,-7.99859 0.250405,-1.20781 1.121885,-2.83429 2.518946,-4.29911 z"
       id="rect170"
       inkscape:connector-curvature="0"
       sodipodi:nodetypes="ccccc" />
    <ellipse
       style="opacity:1;fill:#37064d;fill-opacity:1;fill-rule:nonzero;stroke:#ae5841;stroke-width:1.12307048;stroke-miterlimit:4;stroke-dasharray:none;stroke-opacity:0"
       id="path173"
       cx="127.57767"
       cy="155.76575"
       rx="1.112367"
       ry="0.88062388"
       transform="matrix(0.98014449,0.19828458,-0.19828458,0.98014449,0,0)" />
    <ellipse
       style="opacity:1;fill:#37064d;fill-opacity:1;fill-rule:nonzero;stroke:#ae5841;stroke-width:1.12307048;stroke-miterlimit:4;stroke-dasharray:none;stroke-opacity:0"
       id="path173-3"
       cx="133.52266"
       cy="156.31067"
       rx="1.112367"
       ry="0.88062388"
       transform="matrix(0.98014449,0.19828458,-0.19828458,0.98014449,0,0)" />
    <ellipse
       style="opacity:1;fill:#37064d;fill-opacity:1;fill-rule:nonzero;stroke:#ae5841;stroke-width:1.12307048;stroke-miterlimit:4;stroke-dasharray:none;stroke-opacity:0"
       id="path173-6"
       cx="118.65232"
       cy="179.77357"
       rx="1.112367"
       ry="0.88062388"
       transform="matrix(0.99917995,0.04048989,-0.04048989,0.99917995,0,0)" />
    <ellipse
       style="opacity:1;fill:#37064d;fill-opacity:1;fill-rule:nonzero;stroke:#ae5841;stroke-width:1.12307048;stroke-miterlimit:4;stroke-dasharray:none;stroke-opacity:0"
       id="path173-7"
       cx="123.52274"
       cy="180.61296"
       rx="1.112367"
       ry="0.88062388"
       transform="matrix(0.99917995,0.04048989,-0.04048989,0.99917995,0,0)" />
    <path
       style="opacity:1;fill:#e2e2e2;fill-opacity:1;fill-rule:nonzero;stroke:#ae5841;stroke-width:1.69999993;stroke-miterlimit:4;stroke-dasharray:none;stroke-opacity:0"
       d="m 102.75855,178.90548 c -1.36492,1.16153 -1.81174,3.41159 -1.60323,4.39332 0.91252,0.84691 5.02894,2.73895 5.92246,2.22012 0.41476,0.18244 2.67451,-3.61963 1.8015,-4.14219 -0.79871,-1.18808 -3.78365,-1.96853 -6.12073,-2.47125 z m 5.02978,2.74712 c 0.31814,0.80024 -0.25203,2.493 -1.03405,3.06523 -0.29874,0.0972 -2.24172,-0.81381 -1.66513,-0.40316 0.13712,0.0976 1.13196,-2.23305 0.71449,-3.71354 -0.18158,-0.64391 -0.62392,-0.41993 -0.69982,-0.45353 -0.19949,-0.0884 0.63224,4.38479 -1.1346,3.71739 -1.0196,-0.38517 -1.82555,-0.96345 -1.82062,-0.98533 -0.16624,-0.67631 0.30499,-2.13205 0.91644,-2.99637 1.94883,0.55037 3.45404,1.12669 4.72327,1.76931 z"
       id="rect1007"
       inkscape:connector-curvature="0"
       sodipodi:nodetypes="cccccccssssccc" />
  </g>
  <g
     inkscape:groupmode="layer"
     id="layer18"
     inkscape:label="buty"
     style="display:inline;opacity:1"
     transform="translate(0,1.1144966e-5)">
    <path
       style="opacity:1;fill:#120219;fill-opacity:1;fill-rule:nonzero;stroke:#ae5841;stroke-width:1.69999993;stroke-miterlimit:4;stroke-dasharray:none;stroke-opacity:0"
       d="m 94.571238,237.29351 c 5.226507,1.7777 5.907562,-0.34109 5.907562,-0.34109 0.76006,1.18223 0.32582,2.92208 0.50389,4.65454 1.10679,0.94138 2.31171,2.37686 2.83041,4.07615 0.9237,3.0261 2.15404,5.76765 2.15911,6.24818 -0.30259,5.68127 -13.124611,6.73169 -15.15083,1.74643 -0.820987,-3.17946 1.938997,-9.29928 3.117938,-11.8047 -0.01057,-2.18635 -3.26e-4,-3.07791 0.63192,-4.57951 z"
       id="rect878"
       inkscape:connector-curvature="0"
       sodipodi:nodetypes="cccscccc" />
    <path
       style="opacity:1;fill:#ffffff;fill-opacity:1;fill-rule:nonzero;stroke:#ae5841;stroke-width:1.69999993;stroke-miterlimit:4;stroke-dasharray:none;stroke-opacity:0"
       d="m 93.505282,253.33933 c 3.267251,-0.73775 8.458178,-0.60969 9.600868,0.17391 0.38406,0.28416 0.71209,0.45058 0.71413,0.75567 -0.14164,0.95656 -7.801708,3.50069 -11.56598,0.12712 -0.4036,-0.41519 0.28206,-0.77299 1.250982,-1.0567 z"
       id="rect893"
       inkscape:connector-curvature="0"
       sodipodi:nodetypes="ccccc" />
    <ellipse
       style="opacity:1;fill:#ffffff;fill-opacity:1;fill-rule:nonzero;stroke:#ae5841;stroke-width:1.92690814;stroke-miterlimit:4;stroke-dasharray:none;stroke-opacity:0"
       id="path896"
       cx="103.47566"
       cy="246.43413"
       rx="0.79605108"
       ry="0.78778285"
       transform="matrix(0.99917995,0.04048989,-0.04048989,0.99917995,0,0)" />
    <ellipse
       style="display:inline;opacity:1;fill:#ffffff;fill-opacity:1;fill-rule:nonzero;stroke:#ae5841;stroke-width:1.56471276;stroke-miterlimit:4;stroke-dasharray:none;stroke-opacity:0"
       id="path896-3"
       cx="103.87255"
       cy="244.44147"
       rx="0.64641964"
       ry="0.63970554"
       transform="matrix(0.99917995,0.04048989,-0.04048989,0.99917995,0,0)" />
    <ellipse
       style="display:inline;opacity:1;fill:#ffffff;fill-opacity:1;fill-rule:nonzero;stroke:#ae5841;stroke-width:1.25684667;stroke-miterlimit:4;stroke-dasharray:none;stroke-opacity:0"
       id="path896-3-6"
       cx="104.17021"
       cy="242.62245"
       rx="0.51923293"
       ry="0.51383984"
       transform="matrix(0.99917995,0.04048989,-0.04048989,0.99917995,0,0)" />
    <ellipse
       style="display:inline;opacity:1;fill:#ffffff;fill-opacity:1;fill-rule:nonzero;stroke:#ae5841;stroke-width:1.05195796;stroke-miterlimit:4;stroke-dasharray:none;stroke-opacity:0"
       id="path896-3-6-7"
       cx="104.46057"
       cy="240.84203"
       rx="0.43458861"
       ry="0.43007469"
       transform="matrix(0.99917995,0.04048989,-0.04048989,0.99917995,0,0)" />
    <ellipse
       style="display:inline;opacity:1;fill:#ffffff;fill-opacity:1;fill-rule:nonzero;stroke:#ae5841;stroke-width:1.92690814;stroke-miterlimit:4;stroke-dasharray:none;stroke-opacity:0"
       id="path896-5"
       cx="112.90293"
       cy="246.29099"
       rx="0.79605108"
       ry="0.78778285"
       transform="matrix(0.99917995,0.04048989,-0.04048989,0.99917995,0,0)" />
    <ellipse
       style="display:inline;opacity:1;fill:#ffffff;fill-opacity:1;fill-rule:nonzero;stroke:#ae5841;stroke-width:1.69532013;stroke-miterlimit:4;stroke-dasharray:none;stroke-opacity:0"
       id="path896-5-3"
       cx="112.06104"
       cy="244.18623"
       rx="0.70037663"
       ry="0.69310212"
       transform="matrix(0.99917995,0.04048989,-0.04048989,0.99917995,0,0)" />
    <ellipse
       style="display:inline;opacity:1;fill:#ffffff;fill-opacity:1;fill-rule:nonzero;stroke:#ae5841;stroke-width:1.43800008;stroke-miterlimit:4;stroke-dasharray:none;stroke-opacity:0"
       id="path896-5-3-5"
       cx="111.38285"
       cy="242.05811"
       rx="0.59407169"
       ry="0.58790129"
       transform="matrix(0.99917995,0.04048989,-0.04048989,0.99917995,0,0)" />
    <path
       style="opacity:1;fill:#ffffff;fill-opacity:1;fill-rule:nonzero;stroke:#ae5841;stroke-width:1.69999993;stroke-miterlimit:4;stroke-dasharray:none;stroke-opacity:0"
       d="m 90.647299,252.50255 c 0.288231,1.99546 1.563661,3.11638 3.310654,3.55079 4.608143,1.14588 11.460947,0.0906 12.014257,-4.12205 0.97964,-0.48466 0.53921,1.05348 0.73654,1.91678 0.4245,1.85712 1.1173,2.98431 -1.94122,5.41467 -3.98561,2.08696 -10.137177,2.11272 -13.951414,-0.70381 -1.079342,-1.45897 -1.118065,-1.80792 -0.637129,-3.26608 -0.07818,-1.2813 -0.143877,-2.54388 0.468312,-2.7903 z"
       id="rect988"
       inkscape:connector-curvature="0"
       sodipodi:nodetypes="cscscccc"
       inkscape:export-xdpi="90"
       inkscape:export-ydpi="90" />
    <path
       style="opacity:1;fill:#000000;fill-opacity:1;fill-rule:nonzero;stroke:#ae5841;stroke-width:1.69999993;stroke-miterlimit:4;stroke-dasharray:none;stroke-opacity:0"
       d="m 90.081771,254.76792 c 2.002486,3.60353 14.259869,4.63629 16.582559,-1.0366 0.007,5.51717 -15.612319,5.93723 -16.582559,1.0366 z"
       id="rect991"
       inkscape:connector-curvature="0"
       sodipodi:nodetypes="ccc" />
    <path
       style="display:inline;opacity:1;fill:#000000;fill-opacity:1;fill-rule:nonzero;stroke:#ae5841;stroke-width:1.69999993;stroke-miterlimit:4;stroke-dasharray:none;stroke-opacity:0"
       d="m 90.331801,257.63371 c 2.002486,3.60352 14.259869,4.63628 16.582559,-1.03661 0.007,5.51717 -15.612319,5.93723 -16.582559,1.03661 z"
       id="rect991-6"
       inkscape:connector-curvature="0"
       sodipodi:nodetypes="ccc" />
    <ellipse
       style="display:inline;opacity:1;fill:#000000;fill-opacity:1;fill-rule:nonzero;stroke:#ae5841;stroke-width:1.6098299;stroke-miterlimit:4;stroke-dasharray:none;stroke-opacity:0"
       id="path896-2"
       cx="103.46867"
       cy="246.4313"
       rx="0.66505861"
       ry="0.65815091"
       transform="matrix(0.99917995,0.04048989,-0.04048989,0.99917995,0,0)" />
    <ellipse
       style="display:inline;opacity:1;fill:#000000;fill-opacity:1;fill-rule:nonzero;stroke:#ae5841;stroke-width:1.2333535;stroke-miterlimit:4;stroke-dasharray:none;stroke-opacity:0"
       id="path896-2-9"
       cx="103.8772"
       cy="244.42677"
       rx="0.50952727"
       ry="0.50423503"
       transform="matrix(0.99917995,0.04048989,-0.04048989,0.99917995,0,0)" />
    <ellipse
       style="display:inline;opacity:1;fill:#000000;fill-opacity:1;fill-rule:nonzero;stroke:#ae5841;stroke-width:1.00595963;stroke-miterlimit:4;stroke-dasharray:none;stroke-opacity:0"
       id="path896-3-6-1"
       cx="104.1741"
       cy="242.61353"
       rx="0.41558558"
       ry="0.41126904"
       transform="matrix(0.99917995,0.04048989,-0.04048989,0.99917995,0,0)" />
    <ellipse
       style="display:inline;opacity:1;fill:#000000;fill-opacity:1;fill-rule:nonzero;stroke:#ae5841;stroke-width:0.85253495;stroke-miterlimit:4;stroke-dasharray:none;stroke-opacity:0"
       id="path896-3-6-7-2"
       cx="104.46057"
       cy="240.85373"
       rx="0.35220227"
       ry="0.34854409"
       transform="matrix(0.99917995,0.04048989,-0.04048989,0.99917995,0,0)" />
    <ellipse
       style="display:inline;opacity:1;fill:#000000;fill-opacity:1;fill-rule:nonzero;stroke:#ae5841;stroke-width:1.63659608;stroke-miterlimit:4;stroke-dasharray:none;stroke-opacity:0"
       id="path896-5-7"
       cx="112.90145"
       cy="246.28529"
       rx="0.67611629"
       ry="0.66909379"
       transform="matrix(0.99917995,0.04048989,-0.04048989,0.99917995,0,0)" />
    <ellipse
       style="display:inline;opacity:1;fill:#000000;fill-opacity:1;fill-rule:nonzero;stroke:#ae5841;stroke-width:1.38698375;stroke-miterlimit:4;stroke-dasharray:none;stroke-opacity:0"
       id="path896-5-3-0"
       cx="112.06637"
       cy="244.18517"
       rx="0.5729956"
       ry="0.56704414"
       transform="matrix(0.99917995,0.04048989,-0.04048989,0.99917995,0,0)" />
    <ellipse
       style="display:inline;opacity:1;fill:#000000;fill-opacity:1;fill-rule:nonzero;stroke:#ae5841;stroke-width:1.17548645;stroke-miterlimit:4;stroke-dasharray:none;stroke-opacity:0"
       id="path896-5-3-5-9"
       cx="111.39453"
       cy="242.05228"
       rx="0.48562112"
       ry="0.48057717"
       transform="matrix(0.99917995,0.04048989,-0.04048989,0.99917995,0,0)" />
    <path
       style="opacity:1;fill:#ffffff;fill-opacity:1;fill-rule:nonzero;stroke:#ae5841;stroke-width:1.69999993;stroke-miterlimit:4;stroke-dasharray:none;stroke-opacity:0"
       d="m 102.51025,250.25022 c 0.14789,0.30497 0.13358,0.53992 -0.11694,0.67285 -2.609856,-0.44231 -6.145042,-1.28531 -8.526158,-0.11681 -0.382321,-0.10897 -0.178062,-0.66001 0.0014,-0.76102 2.571009,-1.44136 6.228518,-0.59675 8.641678,0.20497 z"
       id="rect1123"
       inkscape:connector-curvature="0"
       sodipodi:nodetypes="cccccc" />
    <path
       style="opacity:1;fill:#ffffff;fill-opacity:1;fill-rule:nonzero;stroke:#ae5841;stroke-width:1.69999993;stroke-miterlimit:4;stroke-dasharray:none;stroke-opacity:0"
       d="m 93.898132,248.03955 c 2.548167,-1.02859 7.094888,1.05318 8.612128,2.21064 l -0.11694,0.67285 c -1.18942,-0.76325 -5.97895,-2.89449 -8.275879,-2.23096 -0.228165,-0.15342 -0.398678,-0.33068 -0.219309,-0.65253 z"
       id="rect1128"
       inkscape:connector-curvature="0"
       sodipodi:nodetypes="ccccc" />
    <path
       style="opacity:1;fill:#ffffff;fill-opacity:1;fill-rule:nonzero;stroke:#ae5841;stroke-width:1.69999993;stroke-miterlimit:4;stroke-dasharray:none;stroke-opacity:0"
       d="m 101.79944,248.13457 -0.125,0.74106 c -2.083089,-1.33078 -5.400273,-1.16818 -7.556999,-0.18355 l -0.219309,-0.65253 c 2.808294,-1.53919 5.380203,-0.94496 7.901308,0.095 z"
       id="rect1130"
       inkscape:connector-curvature="0"
       sodipodi:nodetypes="ccccc" />
    <path
       style="opacity:1;fill:#ffffff;fill-opacity:1;fill-rule:nonzero;stroke:#ae5841;stroke-width:1.69999993;stroke-miterlimit:4;stroke-dasharray:none;stroke-opacity:0"
       d="m 94.404758,246.22277 c 3.108928,-0.35017 5.837592,-0.15164 7.394682,1.9118 0.34819,0.0633 -0.003,0.62396 -0.125,0.74106 -1.943127,-1.0178 -3.091299,-2.73229 -7.30236,-1.8467 -0.233823,-0.38252 -0.0901,-0.58947 0.03268,-0.80616 z"
       id="rect1132"
       inkscape:connector-curvature="0"
       sodipodi:nodetypes="ccccc" />
    <path
       style="opacity:1;fill:#ffffff;fill-opacity:1;fill-rule:nonzero;stroke:#ae5841;stroke-width:1.69999993;stroke-miterlimit:4;stroke-dasharray:none;stroke-opacity:0"
       d="m 94.404758,246.22277 c 2.219631,-0.80218 4.555347,-0.94174 7.143002,-0.10844 l -0.0312,0.77111 c -2.938375,-1.18637 -4.93153,-0.3286 -7.14443,0.14349 z"
       id="rect1134"
       inkscape:connector-curvature="0"
       sodipodi:nodetypes="ccccc" />
    <path
       style="opacity:1;fill:#ffffff;fill-opacity:1;fill-rule:nonzero;stroke:#ae5841;stroke-width:1.69999993;stroke-miterlimit:4;stroke-dasharray:none;stroke-opacity:0"
       d="m 94.709444,244.47973 c 2.929762,-0.17608 5.188382,0.16381 6.838316,1.6346 0.15937,0.15708 0.21308,0.53422 -0.0312,0.77111 -2.069873,-0.98779 -3.718281,-2.34376 -6.833579,-1.75144 z"
       id="rect1136"
       inkscape:connector-curvature="0"
       sodipodi:nodetypes="ccccc" />
    <ellipse
       style="display:inline;opacity:1;fill:#ffffff;fill-opacity:1;fill-rule:nonzero;stroke:#ae5841;stroke-width:1.12631607;stroke-miterlimit:4;stroke-dasharray:none;stroke-opacity:0"
       id="path896-36"
       cx="104.70762"
       cy="238.87697"
       rx="0.46530765"
       ry="0.46047473"
       transform="matrix(0.99917995,0.04048989,-0.04048989,0.99917995,0,0)" />
    <ellipse
       style="display:inline;opacity:1;fill:#000000;fill-opacity:1;fill-rule:nonzero;stroke:#ae5841;stroke-width:0.94097757;stroke-miterlimit:4;stroke-dasharray:none;stroke-opacity:0"
       id="path896-2-0"
       cx="104.70355"
       cy="238.87532"
       rx="0.38874"
       ry="0.38470227"
       transform="matrix(0.99917995,0.04048989,-0.04048989,0.99917995,0,0)" />
    <ellipse
       style="display:inline;opacity:1;fill:#ffffff;fill-opacity:1;fill-rule:nonzero;stroke:#ae5841;stroke-width:1.12631607;stroke-miterlimit:4;stroke-dasharray:none;stroke-opacity:0"
       id="path896-36-6"
       cx="104.73152"
       cy="236.74805"
       rx="0.46530765"
       ry="0.46047473"
       transform="matrix(0.99917995,0.04048989,-0.04048989,0.99917995,0,0)" />
    <ellipse
       style="display:inline;opacity:1;fill:#000000;fill-opacity:1;fill-rule:nonzero;stroke:#ae5841;stroke-width:0.94097757;stroke-miterlimit:4;stroke-dasharray:none;stroke-opacity:0"
       id="path896-2-0-2"
       cx="104.72746"
       cy="236.7464"
       rx="0.38874"
       ry="0.38470227"
       transform="matrix(0.99917995,0.04048989,-0.04048989,0.99917995,0,0)" />
    <ellipse
       style="display:inline;opacity:1;fill:#ffffff;fill-opacity:1;fill-rule:nonzero;stroke:#ae5841;stroke-width:1.12631607;stroke-miterlimit:4;stroke-dasharray:none;stroke-opacity:0"
       id="path896-36-61"
       cx="104.40173"
       cy="234.86687"
       rx="0.46530765"
       ry="0.46047473"
       transform="matrix(0.99917995,0.04048989,-0.04048989,0.99917995,0,0)" />
    <ellipse
       style="display:inline;opacity:1;fill:#000000;fill-opacity:1;fill-rule:nonzero;stroke:#ae5841;stroke-width:0.94097757;stroke-miterlimit:4;stroke-dasharray:none;stroke-opacity:0"
       id="path896-2-0-8"
       cx="104.39765"
       cy="234.86522"
       rx="0.38874"
       ry="0.38470227"
       transform="matrix(0.99917995,0.04048989,-0.04048989,0.99917995,0,0)" />
    <ellipse
       style="display:inline;opacity:1;fill:#ffffff;fill-opacity:1;fill-rule:nonzero;stroke:#ae5841;stroke-width:1.12631607;stroke-miterlimit:4;stroke-dasharray:none;stroke-opacity:0"
       id="path896-36-7"
       cx="111.03282"
       cy="240.3735"
       rx="0.46530765"
       ry="0.46047473"
       transform="matrix(0.99917995,0.04048989,-0.04048989,0.99917995,0,0)" />
    <ellipse
       style="display:inline;opacity:1;fill:#000000;fill-opacity:1;fill-rule:nonzero;stroke:#ae5841;stroke-width:0.94097757;stroke-miterlimit:4;stroke-dasharray:none;stroke-opacity:0"
       id="path896-2-0-9"
       cx="111.02878"
       cy="240.37186"
       rx="0.38874"
       ry="0.38470227"
       transform="matrix(0.99917995,0.04048989,-0.04048989,0.99917995,0,0)" />
    <ellipse
       style="display:inline;opacity:1;fill:#ffffff;fill-opacity:1;fill-rule:nonzero;stroke:#ae5841;stroke-width:1.12631607;stroke-miterlimit:4;stroke-dasharray:none;stroke-opacity:0"
       id="path896-36-2"
       cx="110.30522"
       cy="238.6868"
       rx="0.46530765"
       ry="0.46047473"
       transform="matrix(0.99917995,0.04048989,-0.04048989,0.99917995,0,0)" />
    <ellipse
       style="display:inline;opacity:1;fill:#000000;fill-opacity:1;fill-rule:nonzero;stroke:#ae5841;stroke-width:0.94097757;stroke-miterlimit:4;stroke-dasharray:none;stroke-opacity:0"
       id="path896-2-0-0"
       cx="110.30116"
       cy="238.68515"
       rx="0.38874"
       ry="0.38470227"
       transform="matrix(0.99917995,0.04048989,-0.04048989,0.99917995,0,0)" />
    <ellipse
       style="display:inline;opacity:1;fill:#ffffff;fill-opacity:1;fill-rule:nonzero;stroke:#ae5841;stroke-width:1.12631607;stroke-miterlimit:4;stroke-dasharray:none;stroke-opacity:0"
       id="path896-36-23"
       cx="109.54456"
       cy="236.61974"
       rx="0.46530765"
       ry="0.46047473"
       transform="matrix(0.99917995,0.04048989,-0.04048989,0.99917995,0,0)" />
    <ellipse
       style="display:inline;opacity:1;fill:#000000;fill-opacity:1;fill-rule:nonzero;stroke:#ae5841;stroke-width:0.94097757;stroke-miterlimit:4;stroke-dasharray:none;stroke-opacity:0"
       id="path896-2-0-7"
       cx="109.54048"
       cy="236.61809"
       rx="0.38874"
       ry="0.38470227"
       transform="matrix(0.99917995,0.04048989,-0.04048989,0.99917995,0,0)" />
    <ellipse
       style="display:inline;opacity:1;fill:#ffffff;fill-opacity:1;fill-rule:nonzero;stroke:#ae5841;stroke-width:1.12631607;stroke-miterlimit:4;stroke-dasharray:none;stroke-opacity:0"
       id="path896-36-5"
       cx="109.79259"
       cy="234.88339"
       rx="0.46530765"
       ry="0.46047473"
       transform="matrix(0.99917995,0.04048989,-0.04048989,0.99917995,0,0)" />
    <ellipse
       style="display:inline;opacity:1;fill:#000000;fill-opacity:1;fill-rule:nonzero;stroke:#ae5841;stroke-width:0.94097757;stroke-miterlimit:4;stroke-dasharray:none;stroke-opacity:0"
       id="path896-2-0-92"
       cx="109.78854"
       cy="234.88174"
       rx="0.38874"
       ry="0.38470227"
       transform="matrix(0.99917995,0.04048989,-0.04048989,0.99917995,0,0)" />
    <path
       style="opacity:1;fill:#ffffff;fill-opacity:1;fill-rule:nonzero;stroke:#ae5841;stroke-width:1.69999993;stroke-miterlimit:4;stroke-dasharray:none;stroke-opacity:0"
       d="m 94.709444,244.47973 c 1.400946,-0.43535 3.797369,-1.08411 6.239126,-0.0763 0.2429,0.18547 0.13817,0.46863 0.034,0.56895 -2.342139,-0.78466 -4.432393,-0.24527 -6.299629,0.16163 -0.12829,-0.22365 -0.155863,-0.44321 0.02651,-0.65427 z"
       id="rect1335"
       inkscape:connector-curvature="0"
       sodipodi:nodetypes="ccccc" />
    <path
       style="opacity:1;fill:#ffffff;fill-opacity:1;fill-rule:nonzero;stroke:#ae5841;stroke-width:1.69999993;stroke-miterlimit:4;stroke-dasharray:none;stroke-opacity:0"
       d="m 95.146149,242.62329 c 2.384619,-0.11814 4.284383,0.52953 5.802421,1.78013 l 0.034,0.56895 c -1.742442,-0.84505 -2.619554,-1.75385 -5.932277,-1.68405 -0.164527,-0.26569 -0.07793,-0.47512 0.09591,-0.66503 z"
       id="rect1337"
       inkscape:connector-curvature="0"
       sodipodi:nodetypes="ccccc" />
    <path
       style="opacity:1;fill:#ffffff;fill-opacity:1;fill-rule:nonzero;stroke:#ae5841;stroke-width:1.69999993;stroke-miterlimit:4;stroke-dasharray:none;stroke-opacity:0"
       d="m 95.146149,242.62329 c 1.664898,-0.46709 3.129395,-0.59001 5.278511,0.0167 0.0591,0.20419 0.0762,0.39706 -0.1152,0.53364 -2.033935,-0.86002 -3.416199,-0.15835 -5.259137,0.11472 z"
       id="rect1339"
       inkscape:connector-curvature="0"
       sodipodi:nodetypes="ccccc" />
    <path
       style="opacity:1;fill:#ffffff;fill-opacity:1;fill-rule:nonzero;stroke:#ae5841;stroke-width:1.69999993;stroke-miterlimit:4;stroke-dasharray:none;stroke-opacity:0"
       d="m 95.240019,240.62764 c 2.361715,-0.0666 3.697941,0.89559 5.184641,2.01232 l -0.1152,0.53364 c -1.549038,-1.16673 -3.116658,-1.89792 -5.147274,-2.06931 -0.07557,-0.20736 -0.06071,-0.37153 0.07786,-0.47665 z"
       id="rect1341"
       inkscape:connector-curvature="0"
       sodipodi:nodetypes="ccccc" />
    <path
       style="opacity:1;fill:#ffffff;fill-opacity:1;fill-rule:nonzero;stroke:#ae5841;stroke-width:1.69999993;stroke-miterlimit:4;stroke-dasharray:none;stroke-opacity:0"
       d="m 95.146149,242.62329 c 0.726699,-1.34412 2.50436,-1.68305 4.549148,-2.08366 0.16643,0.0508 0.358283,0.47167 0.106084,0.64936 -2.827927,0.19433 -3.560738,1.19777 -4.751058,2.09933 z"
       id="rect1343"
       inkscape:connector-curvature="0"
       sodipodi:nodetypes="ccccc" />
    <path
       style="opacity:1;fill:#ffffff;fill-opacity:1;fill-rule:nonzero;stroke:#ae5841;stroke-width:1.69999993;stroke-miterlimit:4;stroke-dasharray:none;stroke-opacity:0"
       d="m 95.033077,238.65907 c 2.37595,-0.12106 3.461205,0.85956 4.66222,1.88056 l 0.106084,0.64936 c -1.434445,-1.03584 -2.767518,-2.06055 -4.826317,-1.9647 -0.200031,-0.33498 -0.04694,-0.47168 0.05803,-0.56522 z"
       id="rect1345"
       inkscape:connector-curvature="0"
       sodipodi:nodetypes="ccccc" />
    <path
       style="opacity:1;fill:#ffffff;fill-opacity:1;fill-rule:nonzero;stroke:#ae5841;stroke-width:1.69999993;stroke-miterlimit:4;stroke-dasharray:none;stroke-opacity:0"
       d="m 95.240019,240.62764 c 1.288869,-1.46387 2.915418,-1.69417 4.800611,-1.78663 0.0756,0.20794 0.10972,0.41001 -0.0318,0.58728 -1.988292,-0.0896 -3.338279,0.74619 -4.846364,1.67601 z"
       id="rect1347"
       inkscape:connector-curvature="0"
       sodipodi:nodetypes="ccccc" />
    <path
       style="opacity:1;fill:#ececec;fill-opacity:1;fill-rule:nonzero;stroke:#ae5841;stroke-width:1.69999993;stroke-miterlimit:4;stroke-dasharray:none;stroke-opacity:0"
       d="m 92.2543,254.39603 c 3.20039,-0.63521 6.908656,-0.89394 11.56598,-0.12712 -0.13831,-2.37635 -13.172981,-1.76636 -11.56598,0.12712 z"
       id="rect4666"
       inkscape:connector-curvature="0"
       sodipodi:nodetypes="ccc" />
    <path
       style="opacity:1;fill:#ececec;fill-opacity:1;fill-rule:nonzero;stroke:#ae5841;stroke-width:1.69999993;stroke-miterlimit:4;stroke-dasharray:none;stroke-opacity:0"
       d="m 124.9531,248.11007 1.11881,0.61539 c -0.32639,-0.17953 -5.2938,2.19556 -6.15694,4.63633 0,0 -1.1818,-0.36342 -1.18842,-0.35746 1.92965,-2.97473 3.94874,-4.56822 6.22655,-4.89426 z"
       id="rect4669"
       inkscape:connector-curvature="0"
       sodipodi:nodetypes="csscc" />
  </g>
  <g
     inkscape:groupmode="layer"
     id="layer9"
     inkscape:label="face"
     style="display:inline;opacity:1"
     transform="translate(0,1.1144966e-5)">
    <path
       style="display:inline;opacity:1;fill:#e8d2c2;fill-opacity:1;fill-rule:evenodd;stroke:#ae5841;stroke-width:1.43786788;stroke-miterlimit:4;stroke-dasharray:none;stroke-opacity:0"
       d="M 69.021452,93.07323 C 79.780664,48.920799 145.38677,34.456162 153.8181,88.590941 c 1.43943,8.730301 1.67474,7.786615 -1.10497,15.369799 -1.55579,2.20059 -4.73073,8.45296 -5.52028,10.46119 -0.72199,1.83639 -0.87932,3.76636 -1.02702,6.75388 -0.0953,1.92749 0.43184,5.55495 0.005,8.3064 -0.74631,3.42675 -3.77332,5.40689 -5.33155,6.68353 -7.82043,6.40722 -13.79016,8.54765 -33.49222,10.49654 -5.34865,0.91548 -10.293148,0.25866 -13.512787,-7.10863 C 64.864656,125.26749 64.891389,111.91218 69.021452,93.07323 Z"
       id="rect23"
       inkscape:connector-curvature="0"
       sodipodi:nodetypes="cccsscsccc" />
    <ellipse
       style="opacity:1;fill:#e8d2c2;fill-opacity:1;fill-rule:nonzero;stroke:#ae5841;stroke-width:1.69999993;stroke-miterlimit:4;stroke-dasharray:none;stroke-opacity:0"
       id="path4659"
       cx="81.414688"
       cy="109.37228"
       rx="0.9921875"
       ry="1.0252604"
       transform="matrix(0.99917995,0.04048989,-0.04048989,0.99917995,0,0)" />
  </g>
  <g
     inkscape:groupmode="layer"
     id="layer23"
     inkscape:label="faceshadow"
     transform="translate(0,1.1144966e-5)">
    <path
       style="opacity:1;fill:#caad98;fill-opacity:1;fill-rule:nonzero;stroke:#ae5841;stroke-width:1.69999993;stroke-miterlimit:4;stroke-dasharray:none;stroke-opacity:0"
       d="m 132.30742,61.370021 c -8.14402,19.155222 -21.79455,25.983368 -27.10229,27.581898 12.8593,1.796155 25.06096,-3.493816 28.31935,-12.677891 8.93549,7.28262 15.80443,17.64117 19.18855,27.686892 l 2.37699,-5.69205 C 151.44091,81.483249 140.56737,73.903932 132.30742,61.370021 Z"
       id="rect181"
       inkscape:connector-curvature="0"
       sodipodi:nodetypes="cccccc" />
  </g>
  <g
     inkscape:groupmode="layer"
     id="layer5"
     inkscape:label="mouth"
     style="display:inline"
     transform="translate(0,1.1144966e-5)">
    <path
       style="opacity:1;fill:#692b36;fill-opacity:1;fill-rule:nonzero;stroke:#ae5841;stroke-width:1.69999993;stroke-miterlimit:4;stroke-dasharray:none;stroke-opacity:0"
       d="m 91.401504,124.2531 c 3.294104,2.19262 5.71649,4.49485 8.404296,6.47413 2.04782,1.508 4.38965,1.05917 6.83975,4.42778 0.27331,0.37577 1.12082,0.21509 1.8136,0.28978 0.69132,0.0745 1.42926,0.25009 1.90916,0.45175 1.35274,0.56846 1.42816,1.33649 2.85237,1.73206 3.37891,0.13393 4.54357,-0.45761 6.9297,-1.03287 -17.58415,6.93897 -21.174689,-7.27524 -28.748876,-12.34263 z"
       id="rect874"
       inkscape:connector-curvature="0"
       sodipodi:nodetypes="cssssccc" />
    <path
       style="opacity:1;fill:#692b36;fill-opacity:1;fill-rule:nonzero;stroke:#ae5841;stroke-width:1.69999993;stroke-miterlimit:4;stroke-dasharray:none;stroke-opacity:0"
       d="m 101.31114,137.18205 c 1.91094,2.45544 5.24347,3.00433 9.02102,3.05471 -7.16324,2.58085 -8.50295,0.89453 -9.02102,-3.05471 z"
       id="rect877"
       inkscape:connector-curvature="0"
       sodipodi:nodetypes="ccc" />
    <path
       style="opacity:1;fill:#1a1a1a;fill-opacity:1;fill-rule:nonzero;stroke:#ae5841;stroke-width:1.69999993;stroke-miterlimit:4;stroke-dasharray:none;stroke-opacity:0"
       d="m 99.321186,132.18612 c 7.654224,7.45787 9.475644,5.64724 14.639404,6.1098 -1.09107,0.8115 -2.3507,1.40043 -3.62843,1.94084 -4.08433,0.12187 -7.05321,-0.508 -9.02102,-3.05471 z"
       id="rect891"
       inkscape:connector-curvature="0"
       sodipodi:nodetypes="ccccc" />
  </g>
  <g
     inkscape:groupmode="layer"
     id="layer10"
     inkscape:label="shadow_eye_right"
     style="display:inline"
     transform="translate(0,1.1144966e-5)">
    <path
       style="display:inline;opacity:1;fill:#e9c6af;fill-opacity:0.93000034;stroke:#ae5841;stroke-width:1.69999993;stroke-miterlimit:4;stroke-dasharray:none;stroke-opacity:0"
       d="m 137.59749,105.08026 c 5.57882,-2.16467 7.48955,-2.13417 9.47096,-1.50764 0.92819,0.26948 1.14409,1.11065 1.39539,1.97127 0.45493,1.55805 0.31878,3.5238 -0.009,4.65763 l -21.51605,3.52569 c 1.09446,-3.16961 5.40324,-6.40318 10.6587,-8.64695 z"
       id="rect25"
       inkscape:connector-curvature="0"
       sodipodi:nodetypes="ccsccc" />
  </g>
  <g
     inkscape:groupmode="layer"
     id="layer11"
     inkscape:label="shadow_eye_left"
     style="display:inline"
     transform="translate(0,1.1144966e-5)">
    <path
       style="display:inline;opacity:1;fill:#e9c6af;fill-opacity:1;stroke:#ae5841;stroke-width:1.69999993;stroke-miterlimit:4;stroke-dasharray:none;stroke-opacity:0"
       d="m 81.735369,90.894605 c 3.053735,-2.218848 7.587317,-3.51592 13.817042,-0.385806 5.827589,3.46397 7.803299,11.004131 9.066179,17.448611 C 99.451469,98.446069 93.799979,91.080862 82.901906,92.446671 Z"
       id="rect834"
       inkscape:connector-curvature="0"
       sodipodi:nodetypes="ccccc" />
  </g>
  <g
     inkscape:groupmode="layer"
     id="layer2"
     inkscape:label="brew"
     style="display:inline"
     transform="translate(0,1.1144966e-5)">
    <path
       style="opacity:1;fill:#000000;fill-opacity:0.97000002;fill-rule:nonzero;stroke:#ae5841;stroke-width:1.69999993;stroke-miterlimit:4;stroke-dasharray:none;stroke-opacity:0"
       d="m 151.80056,105.4521 c 0,0 -1.10139,-0.91916 -2.8576,-1.05721 -0.18267,-0.0144 -0.43348,-0.0508 -0.78893,-0.0515 -3.89661,-0.008 -13.72588,1.31476 -19.84418,3.69541 -0.43316,0.16854 -2.14684,-1.53054 -1.9008,-1.79837 12.77429,-5.04218 16.26773,-4.662 21.87013,-3.50127 1.38814,0.2876 3.37219,1.49098 3.9043,1.93715 0.005,0.47472 -0.16047,0.67373 -0.38292,0.7758 z"
       id="rect859"
       inkscape:connector-curvature="0"
       sodipodi:nodetypes="cssscsccc" />
    <path
       style="opacity:1;fill:#000000;fill-opacity:0.97000002;fill-rule:nonzero;stroke:#ae5841;stroke-width:1.69999993;stroke-miterlimit:4;stroke-dasharray:none;stroke-opacity:0"
       d="m 125.81172,107.00878 0.20796,-0.46443 c 0.52635,0.62302 1.11209,1.17992 1.71273,1.72824 l -0.758,0.37694 z"
       id="rect862"
       inkscape:connector-curvature="0"
       sodipodi:nodetypes="ccccc" />
  </g>
  <g
     inkscape:groupmode="layer"
     id="layer22"
     inkscape:label="brew 1"
     transform="translate(0,1.1144966e-5)">
    <path
       style="opacity:1;fill:#000000;fill-opacity:1;fill-rule:nonzero;stroke:#ae5841;stroke-width:1.69999993;stroke-miterlimit:4;stroke-dasharray:none;stroke-opacity:0"
       d="m 76.945335,85.802161 c 10.937521,-0.755725 18.816724,-4.960402 31.479455,13.853669 -0.21195,0.87407 -0.4239,1.74816 -0.63585,2.62223 C 95.221452,84.297666 92.800901,89.161073 80.976301,86.565709 Z"
       id="rect1092"
       inkscape:connector-curvature="0"
       sodipodi:nodetypes="ccccc" />
    <path
       style="opacity:1;fill:#000000;fill-opacity:1;fill-rule:nonzero;stroke:#ae5841;stroke-width:1.69999993;stroke-miterlimit:4;stroke-dasharray:none;stroke-opacity:0"
       d="m 108.75778,100.10232 0.36793,0.42749 -0.39168,2.60315 -0.42857,-0.53228 z"
       id="rect1095"
       inkscape:connector-curvature="0"
       sodipodi:nodetypes="ccccc" />
  </g>
  <g
     inkscape:groupmode="layer"
     id="layer12"
     inkscape:label="eye_right"
     style="display:inline;opacity:1"
     transform="translate(0,1.1144966e-5)">
    <path
       style="display:inline;opacity:1;fill:#ffffff;fill-opacity:1;stroke:#ae5841;stroke-width:1.52656782;stroke-miterlimit:4;stroke-dasharray:none;stroke-opacity:0"
       d="m 127.77178,112.31992 c 6.29954,-4.42017 11.04855,-5.2191 18.53064,-2.07638 2.16124,1.15642 -2.47287,9.50514 -5.52102,12.77316 -2.436,2.42797 -6.63434,5.69624 -14.84557,4.86399 -1.52089,-0.15411 -2.73359,-1.20984 -3.49726,-1.95797 -0.14343,-0.2433 -0.26927,-0.48696 -0.37858,-0.7306 -0.28441,-0.63396 -0.44875,-1.26904 -0.53688,-1.89591 -0.29679,-2.11104 5.18467,-10.11553 6.24867,-10.97629 z"
       id="rect832"
       inkscape:connector-curvature="0"
       sodipodi:nodetypes="cccscssc" />
    <path
       style="opacity:1;fill:#e0e0e0;fill-opacity:1;fill-rule:nonzero;stroke:#ae5841;stroke-width:1.69999993;stroke-miterlimit:4;stroke-dasharray:none;stroke-opacity:0"
       d="m 146.30242,110.24354 0.57784,2.17871 c -15.34892,-1.25847 -19.91958,4.09836 -24.99544,7.53371 3.95824,-10.93101 16.85165,-11.80763 24.4176,-9.71242 z"
       id="rect1014"
       inkscape:connector-curvature="0"
       sodipodi:nodetypes="cccc" />
    <path
       style="display:inline;opacity:1;fill:#76858e;fill-opacity:1;fill-rule:evenodd;stroke:#ae5841;stroke-width:1.69999993;stroke-miterlimit:4;stroke-dasharray:none;stroke-opacity:0"
       d="m 136.94078,116.76905 c -0.12548,3.09635 -2.18026,6.24666 -5.43364,8.00347 -7.47418,2.33677 -10.12545,0.0178 -9.99998,-3.07849 0.12547,-3.09635 2.9113,-6.60105 6.26462,-9.37411 8.93115,-3.4498 9.29447,1.35278 9.169,4.44913 z"
       id="path860"
       inkscape:connector-curvature="0"
       sodipodi:nodetypes="scscs" />
    <path
       style="display:inline;opacity:1;fill:#000000;fill-opacity:1;fill-rule:evenodd;stroke:#ae5841;stroke-width:2.92832422;stroke-miterlimit:4;stroke-dasharray:none;stroke-opacity:0"
       d="m 129.13698,121.55044 c -1.85581,0.94511 -3.85759,0.11591 -4.60532,-1.66806 -0.74777,-1.78397 0.0417,-3.84713 1.89748,-4.79223 1.85579,-0.94511 3.96638,-0.2651 4.71413,1.51889 0.74773,1.78396 -0.15053,3.99629 -2.00629,4.9414 z"
       id="path863"
       inkscape:connector-curvature="0"
       sodipodi:nodetypes="sssss" />
    <path
       style="display:inline;opacity:1;fill:#000000;fill-opacity:1;fill-rule:evenodd;stroke:#ae5841;stroke-width:1.69999993;stroke-miterlimit:4;stroke-dasharray:none;stroke-opacity:0"
       d="m 136.55815,108.05852 c 5.63226,-0.92752 8.26873,-0.71139 11.29641,0.12341 0.82585,0.48378 1.61315,0.35367 2.64773,0.13281 0.21853,-0.0467 0.51115,-0.0776 0.86113,-0.46843 0.25416,-0.28388 0.41853,-0.34941 0.57564,-0.6851 0.15434,-0.32977 0.14549,0.68619 -0.48639,1.55642 -0.20406,0.28104 -0.62903,0.5512 -0.88878,0.85638 -0.0973,0.11431 0.48446,0.18718 0.93623,0.0645 0.71829,-0.19505 1.40912,-0.69212 1.2848,-0.47661 -0.12889,0.22345 -0.20732,0.41107 -0.2815,0.55181 -0.2385,0.45254 -0.36917,0.56246 -0.83676,0.93524 -0.45167,0.3601 -1.09573,0.6121 -1.71088,0.71022 -0.44615,0.0712 0.0304,0.42273 0.59818,0.4686 0.57932,0.0468 1.29547,-0.0821 1.18151,-0.0141 -0.22955,0.1369 -0.96151,0.62041 -2.30946,0.78622 -1.12311,0.13815 -1.99102,0.10306 -2.54575,-0.17762 -0.39907,-0.53035 -1.12449,-1.51328 -4.60034,-1.99197 -11.13812,-1.15142 -15.29055,2.44248 -17.75643,5.05925 -0.22392,0.23764 -0.31824,0.41323 -0.65411,0.77238 3.70458,-5.6669 11.00625,-7.90203 12.6888,-8.20341 z"
       id="rect868"
       inkscape:connector-curvature="0"
       sodipodi:nodetypes="ccsssssssssssssccsccc" />
    <path
       style="opacity:1;fill:#ffffff;fill-opacity:1;fill-rule:nonzero;stroke:#ae5841;stroke-width:1.69999993;stroke-miterlimit:4;stroke-dasharray:none;stroke-opacity:0"
       d="m 92.322662,94.657247 c 7.823108,4.390722 13.879198,10.916983 11.980878,18.601773 -0.18844,0.76285 -0.38657,1.37519 -0.68435,1.73377 -0.48059,0.58799 -1.09387,0.99727 -1.80059,1.10842 -0.70462,0.11082 -1.03568,0.10012 -1.70377,0.17616 -10.379018,1.18126 -16.930988,-7.31512 -20.091628,-11.01774 -2.261966,-2.61718 -2.368103,-5.294759 -1.42379,-7.878018 0.281916,-0.771207 0.988414,-2.522888 1.541354,-3.220907 2.659879,-3.357776 7.543712,-2.011262 12.181896,0.496551 z"
       id="rect1094"
       inkscape:connector-curvature="0"
       sodipodi:nodetypes="cscsscssc" />
    <path
       style="opacity:1;fill:#e0e0e0;fill-opacity:1;fill-rule:nonzero;stroke:#ae5841;stroke-width:1.69999993;stroke-miterlimit:4;stroke-dasharray:none;stroke-opacity:0"
       d="m 78.835377,96.338376 1.878799,-4.930192 C 92.322662,94.657247 106.25537,98.037283 104.60332,112.2776 101.10236,103.78679 93.576065,96.791939 78.835377,96.338376 Z"
       id="rect1010"
       inkscape:connector-curvature="0"
       sodipodi:nodetypes="cccc" />
    <path
       style="opacity:1;fill:#76858e;fill-opacity:1;fill-rule:nonzero;stroke:#ae5841;stroke-width:1.91554081;stroke-miterlimit:4;stroke-dasharray:none;stroke-opacity:0"
       d="m 95.894724,102.8601 c -0.201545,4.97354 -3.538933,7.97232 -8.893095,7.58986 -4.762535,-0.3402 -8.446188,-6.98329 -8.49749,-9.59859 -0.09574,-4.880592 4.427892,-7.897434 9.198649,-7.704109 4.770756,0.193325 8.393481,4.739281 8.191936,9.712839 z"
       id="path36"
       inkscape:connector-curvature="0"
       sodipodi:nodetypes="sssss" />
    <ellipse
       style="opacity:1;fill:#000000;fill-opacity:1;fill-rule:nonzero;stroke:#ae5841;stroke-width:1.95177543;stroke-miterlimit:4;stroke-dasharray:none;stroke-opacity:0"
       id="path41"
       cx="91.087425"
       cy="97.001305"
       rx="4.2018442"
       ry="4.4243603"
       transform="matrix(0.99917995,0.04048989,-0.04048989,0.99917995,0,0)" />
    <ellipse
       style="opacity:1;fill:#ffffff;fill-opacity:1;fill-rule:nonzero;stroke:#ae5841;stroke-width:1.69999993;stroke-miterlimit:4;stroke-dasharray:none;stroke-opacity:0"
       id="path49"
       cx="96.547325"
       cy="99.060028"
       rx="4.3431296"
       ry="2.80633"
       transform="matrix(0.99917995,0.04048989,-0.04048989,0.99917995,0,0)" />
    <ellipse
       style="opacity:1;fill:#ffffff;fill-opacity:1;fill-rule:nonzero;stroke:#ae5841;stroke-width:1.69999993;stroke-miterlimit:4;stroke-dasharray:none;stroke-opacity:0"
       id="path856"
       cx="138.04762"
       cy="112.11906"
       rx="3.541321"
       ry="2.0713387"
       transform="matrix(0.99917995,0.04048989,-0.04048989,0.99917995,0,0)" />
    <path
       style="opacity:1;fill:#000000;fill-opacity:1;stroke:#c8c8c8;stroke-width:3.43200016;stroke-miterlimit:4;stroke-dasharray:none;stroke-opacity:0"
       d="M 84.658107,90.446108 C 92.591482,88.326674 103.41065,96.275582 104.6374,108.20114 99.101606,96.332471 89.518673,91.703849 80.9625,94.490279 Z"
       id="rect4358"
       inkscape:connector-curvature="0"
       sodipodi:nodetypes="cccc" />
  </g>
  <g
     inkscape:groupmode="layer"
     id="layer1"
     inkscape:label="czap"
     transform="translate(0,1.1144966e-5)" />
  <g
     inkscape:groupmode="layer"
     id="layer3"
     inkscape:label="hair"
     style="display:inline;opacity:1"
     transform="translate(0,1.1144966e-5)">
    <path
       style="opacity:1;fill:#120219;fill-opacity:1;fill-rule:nonzero;stroke:#ae5841;stroke-width:1.69999993;stroke-miterlimit:4;stroke-dasharray:none;stroke-opacity:0"
       d="m 119.33804,34.627191 c 15.25693,-2.631925 38.408,3.044786 55.52609,39.397241 9.90841,27.775568 7.00838,40.314108 -1.06416,63.138308 -7.64986,21.62905 -27.56465,54.84123 -50.44181,65.68097 23.55007,-22.5847 60.73642,-88.80081 8.39477,-134.790026 -2.51642,6.129134 -13.05706,18.013224 -41.533665,22.343723 10.835115,-7.405676 11.515185,-8.112523 15.676385,-15.23572 -14.613571,12.407471 -26.898862,17.445395 -39.554689,43.587653 -5.517466,16.90265 -0.55973,39.55378 2.383512,50.82589 4.662515,13.93946 9.535606,18.99335 18.7217,28.0903 -11.782996,-2.89706 -24.282836,-14.87846 -26.71707,-25.73287 1.23813,9.85467 8.472451,20.02113 16.786661,27.26001 -10.485605,-4.0302 -22.706994,-15.16965 -25.280282,-24.01346 1.473691,5.61002 4.055669,9.29111 5.990695,11.98116 -5.875551,-3.35603 -9.120191,-6.43232 -11.176326,-11.09464 C 14.787689,115.64184 48.914856,20.250401 119.33804,34.627191 Z"
       id="rect866"
       inkscape:connector-curvature="0"
       sodipodi:nodetypes="ccsccccccccccccc" />
    <path
       style="opacity:1;fill:#260c30;fill-opacity:1;fill-rule:nonzero;stroke:#ae5841;stroke-width:1.16120362;stroke-miterlimit:4;stroke-dasharray:none;stroke-opacity:0"
       d="m 115.73839,41.589689 c -3.42138,0.704844 -8.89005,0.229496 -20.0129,4.688615 10.46607,0.873356 12.41225,2.782555 12.09021,3.366216 C 97.140641,56.690401 85.140232,57.628635 73.050332,57.056354 80.935506,54.822108 90.161257,54.60551 97.990429,50.172445 90.410123,48.532552 86.848925,48.49577 81.458943,48.900751 94.148386,38.831319 108.35098,39.009094 115.73839,41.589689 Z"
       id="rect1039"
       inkscape:connector-curvature="0"
       sodipodi:nodetypes="ccccccc" />
    <path
       style="opacity:1;fill:#260c30;fill-opacity:1;fill-rule:nonzero;stroke:#ae5841;stroke-width:1.69999993;stroke-miterlimit:4;stroke-dasharray:none;stroke-opacity:0"
       d="M 132.30743,61.37027 C 134.8355,81.262359 104.1173,88.453091 90.219265,90.397407 105.76007,88.109881 124.60592,75.545848 132.30743,61.37027 Z"
       id="rect1042"
       inkscape:connector-curvature="0"
       sodipodi:nodetypes="ccc" />
    <path
       style="opacity:1;fill:#260c30;fill-opacity:1;fill-rule:nonzero;stroke:#ae5841;stroke-width:1.69999993;stroke-miterlimit:4;stroke-dasharray:none;stroke-opacity:0"
       d="m 109.58241,63.938957 c 1.39657,10.590762 -1.4318,14.100995 -8.69919,18.927438 l 5.01243,-7.704708 -15.679271,12.273649 C 100.71261,74.977244 105.89565,75.161687 109.58241,63.938957 Z"
       id="rect1045"
       inkscape:connector-curvature="0"
       sodipodi:nodetypes="ccccc" />
    <path
       style="opacity:1;fill:#d45500;fill-opacity:1;fill-rule:nonzero;stroke:#ae5841;stroke-width:1.69999993;stroke-miterlimit:4;stroke-dasharray:none;stroke-opacity:0"
       d="m 47.587226,135.20129 c 3.035641,23.88999 9.54321,54.42493 29.928538,63.99138 C 48.525661,185.81335 46.402868,164.42801 47.587226,135.20129 Z"
       id="rect1048"
       inkscape:connector-curvature="0"
       sodipodi:nodetypes="ccc" />
    <path
       style="opacity:1;fill:#d45500;fill-opacity:1;fill-rule:nonzero;stroke:#ae5841;stroke-width:1.69999993;stroke-miterlimit:4;stroke-dasharray:none;stroke-opacity:0"
       d="m 58.226177,187.16037 c -13.408023,-4.7744 -26.270285,-37.45349 -23.070855,-70.34585 2.396995,24.88808 8.293441,56.74926 23.070855,70.34585 z"
       id="rect1053"
       inkscape:connector-curvature="0"
       sodipodi:nodetypes="ccc" />
    <path
       style="opacity:1;fill:#aa4400;fill-opacity:1;fill-rule:nonzero;stroke:#ae5841;stroke-width:1.69999993;stroke-miterlimit:4;stroke-dasharray:none;stroke-opacity:0"
       d="M 74.915123,103.65099 C 56.48539,132.69878 61.826454,174.72401 87.446173,197.66553 54.080958,181.00179 53.489579,121.97703 74.915123,103.65099 Z"
       id="rect1056"
       inkscape:connector-curvature="0"
       sodipodi:nodetypes="ccc" />
    <path
       style="opacity:1;fill:#d45500;fill-opacity:1;fill-rule:nonzero;stroke:#ae5841;stroke-width:1.69999993;stroke-miterlimit:4;stroke-dasharray:none;stroke-opacity:0"
       d="M 152.43453,95.084043 C 170.89122,125.99722 161.42361,175.7795 123.35816,202.84371 142.3267,182.79742 167.24564,129.2291 152.43453,95.084043 Z"
       id="rect1058"
       inkscape:connector-curvature="0"
       sodipodi:nodetypes="ccc" />
    <path
       style="opacity:1;fill:#260c30;fill-opacity:1;fill-rule:nonzero;stroke:#ae5841;stroke-width:1.69999993;stroke-miterlimit:4;stroke-dasharray:none;stroke-opacity:0"
       d="M 131.18433,44.440418 C 177.62478,59.203022 185.37583,103.65251 158.439,164.05666 180.40271,105.02588 170.6805,62.207407 131.18433,44.440418 Z"
       id="rect153"
       inkscape:connector-curvature="0"
       sodipodi:nodetypes="ccc" />
    <path
       style="opacity:1;fill:#260c30;fill-opacity:1;fill-rule:nonzero;stroke:#ae5841;stroke-width:1.69999993;stroke-miterlimit:4;stroke-dasharray:none;stroke-opacity:0"
       d="M 100.42719,63.705401 C 66.138214,81.956352 59.229485,101.63657 52.131367,125.10523 56.725692,89.787736 68.182674,74.350373 100.42719,63.705401 Z"
       id="rect158"
       inkscape:connector-curvature="0"
       sodipodi:nodetypes="ccc" />
  </g>
  <g
     inkscape:groupmode="layer"
     id="layer28"
     inkscape:label="hand 3"
     style="display:inline"
     transform="translate(0,1.1144966e-5)">
    <path
       style="opacity:1;fill:#e8d2c2;fill-opacity:1;fill-rule:nonzero;stroke:#ae5841;stroke-width:2.23572612;stroke-miterlimit:4;stroke-dasharray:none;stroke-opacity:0"
       d="m 140.87104,155.68516 c 1.34784,-1.88587 2.45839,-4.36794 4.52791,-6.72209 2.64568,-2.16588 5.31243,-3.28103 7.97903,-4.40417 1.07821,0.14707 1.27429,0.65493 0.37173,1.61222 -1.27221,1.27719 -2.67272,1.81642 -4.01193,2.70818 1.50609,2.76713 6.32821,2.98556 15.1066,0.51999 0.93137,-0.007 0.79327,0.78317 0.99449,0.80452 l 1.3172,-0.0203 c 0.38267,0.11698 0.50116,0.26153 0.34542,0.43495 0.56047,0.0399 0.44774,0.38517 0.40501,0.46843 -0.13162,0.22087 -0.37839,0.22211 -0.56759,0.33316 0.52359,-0.0936 0.57559,0.49652 0.30475,0.76931 -2.51514,1.92717 -5.62656,2.57493 -8.61446,3.4877 1.44589,0.30011 2.87231,0.33177 5.25163,-0.0402 1.07127,0.36385 1.04836,0.42342 0.41162,0.89315 -1.53729,0.46523 -2.94116,1.09676 -4.4351,1.04115 -1.33431,-0.29177 -2.62284,-0.34875 -3.86806,-0.44778 -3.73326,0.27069 -5.84248,0.78718 -8.75215,0.42757 -3.81857,3.22336 -6.73237,6.62816 -9.94108,9.97385 -4.8947,1.36545 -6.57121,-0.75071 -5.8911,-5.35596 z"
       id="rect4792"
       inkscape:connector-curvature="0"
       sodipodi:nodetypes="ccccccccccccccccccccc" />
    <path
       style="opacity:1;fill:#caad98;fill-opacity:1;fill-rule:nonzero;stroke:#ae5841;stroke-width:2.23572612;stroke-miterlimit:4;stroke-dasharray:none;stroke-opacity:0"
       d="m 150.56412,151.29965 c -0.54376,0.85739 -1.50122,1.0313 -2.41268,1.28127 1.57226,0.0508 2.88191,0.82276 4.32285,1.23413 2.20873,0.59014 4.39033,1.17568 6.74626,1.79049 l -0.1913,0.0715 c -1.86107,-0.37793 -4.39822,-0.8352 -6.67641,-1.46021 -1.27229,-0.34907 -2.26336,-1.01371 -3.49913,-1.14177 -1.52922,-0.15846 -2.68394,-0.3608 -3.18279,0.0323 0.38762,-0.4885 1.02599,-0.75646 1.94514,-0.77747 1.03601,-0.017 1.99706,-0.49288 2.94806,-1.03019 z"
       id="rect4795"
       inkscape:connector-curvature="0"
       sodipodi:nodetypes="cccccssccc" />
    <path
       style="opacity:1;fill:#caad98;fill-opacity:0.575;fill-rule:nonzero;stroke:#ae5841;stroke-width:2.23572612;stroke-miterlimit:4;stroke-dasharray:none;stroke-opacity:0"
       d="m 154.06118,151.59289 c 1.0688,0.76295 1.90582,1.6857 1.5839,3.40718 l -0.29754,-0.10273 c -0.0986,-1.28687 -0.46553,-2.35626 -1.50719,-2.87883 -0.0556,-0.22047 -0.003,-0.37549 0.22088,-0.42565 z"
       id="rect4798"
       inkscape:connector-curvature="0"
       sodipodi:nodetypes="ccccc" />
    <path
       style="opacity:1;fill:#caad98;fill-opacity:0.91981129;fill-rule:nonzero;stroke:#ae5841;stroke-width:2.23572612;stroke-miterlimit:4;stroke-dasharray:none;stroke-opacity:0"
       d="m 167.33891,151.42002 c -3.8549,1.12578 -7.5903,2.50798 -11.86158,2.74034 l -0.18418,-0.36666 c 3.97844,-0.37544 8.02143,-1.42118 12.04576,-2.37368 z"
       id="rect4801"
       inkscape:connector-curvature="0"
       sodipodi:nodetypes="cccc" />
    <path
       style="opacity:1;fill:#caad98;fill-opacity:0.575;fill-rule:nonzero;stroke:#ae5841;stroke-width:2.23572612;stroke-miterlimit:4;stroke-dasharray:none;stroke-opacity:0"
       d="m 165.83887,150.20381 0,0 c -3.74633,0.98669 -7.44575,1.64474 -11.13004,2.19693 l -0.22822,-0.33618 c 3.79152,-0.68541 7.57751,-1.30457 11.35826,-1.86075 z"
       id="rect4804"
       inkscape:connector-curvature="0"
       sodipodi:nodetypes="ccccc" />
    <path
       style="opacity:1;fill:#caad98;fill-opacity:1;fill-rule:nonzero;stroke:#ae5841;stroke-width:2.23572612;stroke-miterlimit:4;stroke-dasharray:none;stroke-opacity:0"
       d="m 141.62147,155.45775 c 1.39324,1.33056 3.77811,1.86563 6.01567,2.09309 l -1.01833,0.8612 c -3.01471,-0.0892 -4.86671,-1.27991 -4.99736,-2.95427 z"
       id="rect4819"
       inkscape:connector-curvature="0"
       sodipodi:nodetypes="cccc" />
  </g>
  <g
     inkscape:groupmode="layer"
     id="layer26"
     inkscape:label="hand 1"
     style="display:inline"
     transform="translate(0,1.1144966e-5)">
    <path
       style="display:inline;opacity:1;fill:#e6e6e6;fill-opacity:1;fill-rule:nonzero;stroke:#ae5841;stroke-width:1.69999993;stroke-miterlimit:4;stroke-dasharray:none;stroke-opacity:0"
       d="m 135.3969,159.46889 c 3.07655,4.92723 6.7443,3.59996 6.82586,3.57208 -1.87093,1.99395 -11.0231,12.05283 -14.77314,11.34706 -1.03178,-2.4662 -2.44691,-7.33545 0.41966,-9.01117 2.52391,-2.11739 5.03779,-4.13378 7.52762,-5.90797 z"
       id="rect4742-6"
       inkscape:connector-curvature="0"
       sodipodi:nodetypes="ccccc" />
  </g>
</svg>
