<?xml version="1.0" encoding="UTF-8" standalone="no"?>
<!-- Created with Inkscape (http://www.inkscape.org/) -->

<svg
   xmlns:dc="http://purl.org/dc/elements/1.1/"
   xmlns:cc="http://creativecommons.org/ns#"
   xmlns:rdf="http://www.w3.org/1999/02/22-rdf-syntax-ns#"
   xmlns:svg="http://www.w3.org/2000/svg"
   xmlns="http://www.w3.org/2000/svg"
   xmlns:xlink="http://www.w3.org/1999/xlink"
   xmlns:sodipodi="http://sodipodi.sourceforge.net/DTD/sodipodi-0.dtd"
   xmlns:inkscape="http://www.inkscape.org/namespaces/inkscape"
   width="1000"
   height="1000"
   viewBox="0 0 264.58332 264.58334"
   version="1.1"
   id="svg8"
   inkscape:version="0.91 r13725"
   sodipodi:docname="gimp.svg">
  <defs
     id="defs2">
    <clipPath
       clipPathUnits="userSpaceOnUse"
       id="clipPath36">
      <path
         d="m 0,141.732 141.732,0 L 141.732,0 0,0 0,141.732 Z"
         id="path38"
         inkscape:connector-curvature="0" />
    </clipPath>
    <radialGradient
       id="a"
       cx="-183.69"
       cy="328.97198"
       r="0.75999999"
       gradientTransform="matrix(2291.6716,0,0,2218.7549,421816.06,-729304.54)"
       gradientUnits="userSpaceOnUse">
      <stop
         offset="0"
         stop-color="#423325"
         stop-opacity=".98"
         id="stop5" />
      <stop
         offset="1"
         stop-color="#1c0a00"
         id="stop7" />
    </radialGradient>
    <radialGradient
       id="a-4"
       cx="-183.69"
       cy="328.97198"
       r="0.75999999"
       gradientTransform="matrix(2291.6716,0,0,2218.7549,421816.06,-729304.54)"
       gradientUnits="userSpaceOnUse">
      <stop
         offset="0"
         stop-color="#423325"
         stop-opacity=".98"
         id="stop5-4" />
      <stop
         offset="1"
         stop-color="#1c0a00"
         id="stop7-7" />
    </radialGradient>
    <linearGradient
       gradientUnits="userSpaceOnUse"
       id="WhiteTransparent">
      <stop
         id="stop7-3"
         offset="0"
         style="stop-color:white;stop-opacity:1" />
      <stop
         id="stop9"
         offset="1"
         style="stop-color:white;stop-opacity:0" />
    </linearGradient>
    <linearGradient
       gradientUnits="userSpaceOnUse"
       id="BlackTransparent">
      <stop
         id="stop12"
         offset="0"
         style="stop-color:black;stop-opacity:1" />
      <stop
         id="stop14"
         offset="1"
         style="stop-color:black;stop-opacity:0" />
    </linearGradient>
    <linearGradient
       gradientUnits="userSpaceOnUse"
       y2="64"
       x2="0"
       y1="128"
       x1="0"
       xlink:href="#BlackTransparent"
       id="liquidShade" />
    <linearGradient
       gradientUnits="userSpaceOnUse"
       y2="76"
       x2="0"
       y1="128"
       x1="0"
       xlink:href="#WhiteTransparent"
       id="liquidSpecular" />
    <linearGradient
       gradientUnits="userSpaceOnUse"
       y2="40"
       x2="60"
       y1="20"
       x1="80"
       xlink:href="#WhiteTransparent"
       id="sideSpecular" />
    <linearGradient
       gradientUnits="userSpaceOnUse"
       y2="50"
       x2="90"
       y1="20"
       x1="60"
       xlink:href="#WhiteTransparent"
       id="IcecapTip" />
    <linearGradient
       gradientUnits="userSpaceOnUse"
       y2="60"
       x2="58"
       y1="35"
       x1="33"
       xlink:href="#WhiteTransparent"
       id="shinySpecular" />
    <clipPath
       id="clipoutline1"
       clipPathUnits="userSpaceOnUse">
      <path
         d="M 54.1,12.5 L 12.9,54.7 C -2.7,70.3 23,69 32.3,74.9 C 36.6,77.7 18.5,81.3 22.2,85 C 25.8,88.7 43.9,92.1 47.5,95.7 C 51.1,99.4 40.2,103.3 43.8,107 C 47.3,110.7 55.7,107.2 57.2,115.6 C 58.3,121.8 72.6,118.7 79,113.4 C 83,110 72.1,110 75.7,106.3 C 84.7,97.2 92.7,102.2 96,93.8 C 97.8,89.3 82.4,86.1 86.5,83.2 C 96.3,76.3 132.3,72.8 115.7,56.2 L 73,12.5 C 67.7,7.5 59,7.5 54.1,12.5 z M 44.2,77.2 C 45.1,77.2 75,81.2 63.5,84.3 C 59.1,85.5 38.9,77.2 44.2,77.2 z M 101.4,93.8 C 101.4,95.9 117.7,97.1 116.8,93.3 C 115.5,86.9 103.2,87.4 101.4,93.8 z M 31.9,104.9 C 35.6,108.1 41.2,104.2 43,99.7 C 39.4,95 26.1,100 31.9,104.9 z M 99.4,98.2 C 94.8,102.4 100.2,106.8 104.7,103.9 C 105.9,103.1 104.6,99.2 99.4,98.2 z "
         id="outline1" />
    </clipPath>
    <filter
       y="0"
       x="0"
       filterUnits="userSpaceOnUse"
       id="ShadowBlur">
      <feGaussianBlur
         id="feGaussianBlur24"
         result="blur"
         stdDeviation="3"
         in="SourceAlpha" />
    </filter>
    <linearGradient
       id="linearGradient5785"
       gradientUnits="userSpaceOnUse">
      <stop
         style="stop-color:#c0cdf9;stop-opacity:1"
         offset="0"
         id="stop5787" />
      <stop
         style="stop-color:#07092d;stop-opacity:0.28804347"
         offset="1"
         id="stop5789" />
    </linearGradient>
    <clipPath
       id="clipPath9086"
       clipPathUnits="userSpaceOnUse">
      <use
         transform="translate(1.009546e-6,0)"
         height="300"
         width="400"
         y="0"
         x="0"
         style="fill:#ffffff;fill-opacity:1"
         class="low-specularity"
         xlink:href="#outline1"
         id="use9088" />
    </clipPath>
    <linearGradient
       gradientTransform="matrix(1.009184,0,0,1.009184,-0.3890738,-0.3831933)"
       id="shinySpecular-4"
       xlink:href="#WhiteTransparent"
       x1="33"
       y1="35"
       x2="58"
       y2="60"
       gradientUnits="userSpaceOnUse" />
    <clipPath
       id="clipPath9086-5"
       clipPathUnits="userSpaceOnUse">
      <use
         transform="translate(1.009546e-6,0)"
         height="300"
         width="400"
         y="0"
         x="0"
         style="fill:#ffffff;fill-opacity:1"
         class="low-specularity"
         xlink:href="#outline1"
         id="use9088-9" />
    </clipPath>
    <linearGradient
       y2="40"
       x2="60"
       y1="20"
       x1="82.118591"
       gradientUnits="userSpaceOnUse"
       id="linearGradient7003"
       xlink:href="#linearGradient5785"
       inkscape:collect="always" />
    <linearGradient
       gradientUnits="userSpaceOnUse"
       y2="50"
       x2="90"
       y1="20"
       x1="60"
       xlink:href="#WhiteTransparent"
       id="linearGradient7410" />
    <linearGradient
       gradientUnits="userSpaceOnUse"
       y2="201.5"
       x2="231.75"
       y1="195.1875"
       x1="231.625"
       id="linearGradient7079"
       xlink:href="#WhiteTransparent"
       inkscape:collect="always" />
    <linearGradient
       gradientUnits="userSpaceOnUse"
       y2="200.0714"
       x2="231.3765"
       y1="195.62131"
       x1="231.3765"
       id="linearGradient7087"
       xlink:href="#WhiteTransparent"
       inkscape:collect="always" />
    <linearGradient
       gradientUnits="userSpaceOnUse"
       y2="201.5"
       x2="231.75"
       y1="195.1875"
       x1="231.625"
       id="linearGradient7117"
       xlink:href="#WhiteTransparent"
       inkscape:collect="always" />
    <linearGradient
       gradientUnits="userSpaceOnUse"
       y2="200.0714"
       x2="231.3765"
       y1="195.62131"
       x1="231.3765"
       id="linearGradient7125"
       xlink:href="#WhiteTransparent"
       inkscape:collect="always" />
    <linearGradient
       id="linearGradient8542">
      <stop
         id="stop8544"
         offset="0"
         style="stop-color:#5b676b;stop-opacity:1" />
      <stop
         id="stop8546"
         offset="1"
         style="stop-color:#141718;stop-opacity:1" />
    </linearGradient>
    <linearGradient
       gradientTransform="matrix(0.755165,0.395143,-0.395143,0.755165,-25.91245,6.532586)"
       gradientUnits="userSpaceOnUse"
       xlink:href="#WhiteTransparent"
       id="linearGradient2452"
       y2="42.282146"
       x2="7.7521091"
       y1="37.752247"
       x1="13.236155" />
    <linearGradient
       id="linearGradient6963">
      <stop
         id="stop6965"
         offset="0"
         style="stop-color:#696969;stop-opacity:1" />
      <stop
         id="stop6967"
         offset="1"
         style="stop-color:black;stop-opacity:1" />
    </linearGradient>
    <radialGradient
       gradientTransform="matrix(1.572694,0,0,1.532639,-55.36682,-21.35823)"
       gradientUnits="userSpaceOnUse"
       xlink:href="#linearGradient6963"
       id="radialGradient6969"
       fy="35.356506"
       fx="15.415101"
       r="7.5791559"
       cy="35.356506"
       cx="15.415101" />
    <linearGradient
       id="linearGradient6939">
      <stop
         id="stop6941"
         offset="0"
         style="stop-color:#bdbdbd;stop-opacity:1" />
      <stop
         id="stop6947"
         offset="0.33333334"
         style="stop-color:#e2e2e2;stop-opacity:1" />
      <stop
         id="stop6949"
         offset="0.66666669"
         style="stop-color:#a3a3a3;stop-opacity:1" />
      <stop
         id="stop6943"
         offset="1"
         style="stop-color:#ddd;stop-opacity:1" />
    </linearGradient>
    <linearGradient
       gradientTransform="translate(-46.40695,-1.802856)"
       gradientUnits="userSpaceOnUse"
       xlink:href="#linearGradient6939"
       id="linearGradient6945"
       y2="33.438831"
       x2="23.109331"
       y1="30.001331"
       x1="19.394735" />
    <linearGradient
       id="linearGradient6951">
      <stop
         id="stop6953"
         offset="0"
         style="stop-color:#6e3d09;stop-opacity:1" />
      <stop
         id="stop6959"
         offset="0.24242425"
         style="stop-color:#ea8113;stop-opacity:1" />
      <stop
         id="stop6961"
         offset="0.62121212"
         style="stop-color:#5c3307;stop-opacity:1" />
      <stop
         id="stop6955"
         offset="1"
         style="stop-color:#e07c12;stop-opacity:1" />
    </linearGradient>
    <linearGradient
       gradientTransform="translate(-49.30496,1.877723)"
       gradientUnits="userSpaceOnUse"
       xlink:href="#linearGradient6951"
       id="linearGradient6957"
       y2="11.182488"
       x2="27.753893"
       y1="19.239889"
       x1="37.017639" />
    <linearGradient
       id="linearGradient6500">
      <stop
         id="stop6502"
         offset="0"
         style="stop-color:#857c63;stop-opacity:1" />
      <stop
         id="stop6504"
         offset="1"
         style="stop-color:#221f19;stop-opacity:1" />
    </linearGradient>
    <linearGradient
       id="linearGradient6468">
      <stop
         id="stop6470"
         offset="0"
         style="stop-color:white;stop-opacity:1" />
      <stop
         id="stop6472"
         offset="1"
         style="stop-color:#b9b9b0;stop-opacity:1" />
    </linearGradient>
    <linearGradient
       gradientUnits="userSpaceOnUse"
       xlink:href="#WhiteTransparent"
       id="linearGradient6458"
       y2="31.57"
       x2="5.9846287"
       y1="23.362427"
       x1="6.3051529" />
    <radialGradient
       gradientTransform="matrix(1.318488,0,0,1.318488,-22.1264,-6.241691)"
       gradientUnits="userSpaceOnUse"
       xlink:href="#linearGradient6468"
       id="radialGradient6474"
       fy="19.597878"
       fx="69.473244"
       r="3.5153139"
       cy="19.597878"
       cx="69.473244" />
    <radialGradient
       gradientTransform="matrix(1,0,0,0.284247,0,24.29088)"
       gradientUnits="userSpaceOnUse"
       xlink:href="#BlackTransparent"
       id="radialGradient6498"
       fy="33.9375"
       fx="23"
       r="18.25"
       cy="33.9375"
       cx="23" />
    <linearGradient
       gradientUnits="userSpaceOnUse"
       xlink:href="#WhiteTransparent"
       id="linearGradient8530"
       y2="46.98568"
       x2="39.524544"
       y1="19.110678"
       x1="14.96875" />
    <radialGradient
       gradientTransform="matrix(0.916159,0.09318684,-0.108765,1.069309,3.253668,-3.029272)"
       gradientUnits="userSpaceOnUse"
       xlink:href="#linearGradient8542"
       id="radialGradient8548"
       fy="25.271027"
       fx="6.0242186"
       r="4.8310289"
       cy="25.271027"
       cx="6.0242186" />
    <linearGradient
       gradientUnits="userSpaceOnUse"
       xlink:href="#BlackTransparent"
       id="linearGradient4330"
       y2="30.985245"
       x2="24.328892"
       y1="30.543303"
       x1="26.162951" />
    <linearGradient
       gradientTransform="translate(-3.836549,0.345971)"
       gradientUnits="userSpaceOnUse"
       xlink:href="#BlackTransparent"
       id="linearGradient4351"
       y2="30.293064"
       x2="21.213203"
       y1="28.083355"
       x1="32.350136" />
    <radialGradient
       gradientTransform="matrix(1.77275,0,0,1.29668,-16.3404,-6.615959)"
       gradientUnits="userSpaceOnUse"
       xlink:href="#linearGradient6500"
       id="radialGradient4354"
       fy="22.300018"
       fx="18.557627"
       r="19.2292"
       cy="22.300018"
       cx="18.557627" />
    <radialGradient
       gradientTransform="matrix(1.318488,0,0,1.318488,-22.1264,-6.241691)"
       gradientUnits="userSpaceOnUse"
       xlink:href="#linearGradient6468"
       id="radialGradient4363"
       fy="19.597878"
       fx="69.473244"
       r="3.5153139"
       cy="19.597878"
       cx="69.473244" />
  </defs>
  <sodipodi:namedview
     id="base"
     pagecolor="#ffffff"
     bordercolor="#666666"
     borderopacity="1.0"
     inkscape:pageopacity="0.0"
     inkscape:pageshadow="2"
     inkscape:zoom="0.1767767"
     inkscape:cx="822.72411"
     inkscape:cy="826.01264"
     inkscape:document-units="mm"
     inkscape:current-layer="layer1"
     showgrid="false"
     units="px"
     inkscape:window-width="1366"
     inkscape:window-height="711"
     inkscape:window-x="0"
     inkscape:window-y="0"
     inkscape:window-maximized="1"
     showguides="false"
     inkscape:guide-bbox="true" />
  <metadata
     id="metadata5">
    <rdf:RDF>
      <cc:Work
         rdf:about="">
        <dc:format>image/svg+xml</dc:format>
        <dc:type
           rdf:resource="http://purl.org/dc/dcmitype/StillImage" />
        <dc:title />
      </cc:Work>
    </rdf:RDF>
  </metadata>
  <g
     inkscape:groupmode="layer"
     id="layer25"
     inkscape:label="background"
     style="display:inline">
    <circle
       style="opacity:0.95;fill:#ffffff;fill-opacity:0.48627451;stroke:#ffffff;stroke-width:3.59625006;stroke-miterlimit:4;stroke-dasharray:none;stroke-opacity:1"
       id="path6009"
       cx="132.29164"
       cy="127"
       r="114.37157" />
  </g>
  <g
     inkscape:groupmode="layer"
     id="layer1"
     inkscape:label="gimp 1"
     style="opacity:1">
    <g
       id="layer1-3"
       transform="matrix(3.1277793,0,0,3.1277793,60.412624,52.500335)">
      <path
         id="path6490"
         style="color:#000000;display:inline;overflow:visible;visibility:visible;fill:url(#radialGradient6498);fill-opacity:1;fill-rule:evenodd;stroke:none;stroke-width:0.9999997;stroke-linecap:butt;stroke-linejoin:miter;stroke-miterlimit:10;stroke-dasharray:none;stroke-dashoffset:0;stroke-opacity:1;marker:none;marker-start:none;marker-mid:none;marker-end:none"
         transform="matrix(1,0,0,1.53012,0.125,-19.99096)"
         d="m 41.25,33.9375 a 18.25,5.1875 0 1 1 -36.5,0 18.25,5.1875 0 1 1 36.5,0 z"
         inkscape:connector-curvature="0" />
      <path
         id="path4323"
         style="color:#000000;display:inline;overflow:visible;visibility:visible;fill:url(#radialGradient4354);fill-opacity:1;fill-rule:evenodd;stroke:#2e3436;stroke-width:0.9999997;stroke-linecap:butt;stroke-linejoin:miter;stroke-miterlimit:10;stroke-dasharray:none;stroke-dashoffset:0;stroke-opacity:1;marker:none;marker-start:none;marker-mid:none;marker-end:none"
         d="m 10.374369,12.467884 c 0,0 2.874509,5.927634 9.599242,5.760407 C 34.066126,17.874738 36.53732,10.523341 36.890873,9.4626804 37.244427,8.4020202 37.785407,8.5626825 37.91048,9.5429474 42.506674,51.262247 6.0135488,33.362123 4.7175144,26.256467 11.965359,24.135147 10.197592,20.069282 10.197592,20.069282 l 0.176777,-7.601398 z"
         inkscape:connector-curvature="0" />
      <path
         id="path6480"
         style="color:#000000;display:inline;overflow:visible;visibility:visible;fill:url(#linearGradient4351);fill-opacity:1;fill-rule:evenodd;stroke:none;stroke-width:0.9999997;stroke-linecap:butt;stroke-linejoin:miter;stroke-miterlimit:10;stroke-dasharray:none;stroke-dashoffset:0;stroke-opacity:1;marker:none;marker-start:none;marker-mid:none;marker-end:none"
         d="m 15.73779,30.066049 c 6.7389,1.347837 10.170691,0.09809 12.179175,-1.452776 -0.53033,-0.68501 -1.43631,-1.436311 -1.43631,-1.436311 0,0 2.353317,0.653942 3.18198,1.723573 0.82629,1.066568 0.306808,1.723707 0.09056,3.08837 -0.481411,-1.198599 -1.379981,-1.648092 -1.501634,-2.124332 -1.806268,2.496927 -6.306442,2.3932 -12.513772,0.201476 z"
         inkscape:connector-curvature="0" />
      <path
         id="path8520"
         style="color:#000000;display:inline;overflow:visible;visibility:visible;opacity:0.18539327;fill:none;fill-opacity:1;fill-rule:evenodd;stroke:url(#linearGradient8530);stroke-width:0.9999997;stroke-linecap:butt;stroke-linejoin:miter;stroke-miterlimit:10;stroke-dasharray:none;stroke-dashoffset:0;stroke-opacity:1;marker:none;marker-start:none;marker-mid:none;marker-end:none"
         d="m 36.96875,11.84375 c -0.561978,0.926895 -1.406492,2.033166 -2.6875,3.09375 -2.631918,2.179042 -7.050563,4.162347 -14.28125,4.34375 -4.224373,0.105049 -6.952741,-1.934149 -8.625,-3.75 L 11.25,20 c 0.136107,0.418802 0.415455,1.390498 -0.0625,2.71875 -0.514314,1.429296 -2.154514,2.891363 -4.96875,4 0.2503304,0.522033 0.4954845,1.04362 1.25,1.78125 1.0279503,1.004945 2.4570333,2.088049 4.15625,3.0625 3.398433,1.948902 7.801583,3.493212 11.90625,3.5625 4.104667,0.06929 7.857126,-1.23455 10.4375,-5 2.378744,-3.471218 3.682473,-9.347943 3,-18.28125 z"
         inkscape:connector-curvature="0" />
      <path
         id="path4357"
         style="color:#000000;display:inline;overflow:visible;visibility:visible;fill:url(#radialGradient4363);fill-opacity:1;fill-rule:evenodd;stroke:#888a85;stroke-width:0.78260845;stroke-linecap:butt;stroke-linejoin:miter;stroke-miterlimit:10;stroke-dasharray:none;stroke-dashoffset:0;stroke-opacity:1;marker:none;marker-start:none;marker-mid:none;marker-end:none"
         transform="matrix(1.277778,0,0,1.277778,-75.12661,-6.507784)"
         d="m 72.655224,21.837049 a 3.1819806,3.1819806 0 1 1 -6.363961,0 3.1819806,3.1819806 0 1 1 6.363961,0 z"
         inkscape:connector-curvature="0" />
      <path
         id="path5198"
         style="color:#000000;display:inline;overflow:visible;visibility:visible;fill:url(#radialGradient8548);fill-opacity:1;fill-rule:evenodd;stroke:#000000;stroke-width:0.9999997;stroke-linecap:butt;stroke-linejoin:miter;stroke-miterlimit:10;stroke-dasharray:none;stroke-dashoffset:0;stroke-opacity:1;marker:none;marker-start:none;marker-mid:none;marker-end:none"
         transform="matrix(0.810984,-0.585069,0.585069,0.810984,-14.77791,6.947121)"
         d="m 10.429825,27.228739 a 4.331029,6.098796 0 1 1 -8.662058,0 4.331029,6.098796 0 1 1 8.662058,0 z"
         inkscape:connector-curvature="0" />
      <path
         id="path4359"
         style="color:#000000;display:inline;overflow:visible;visibility:visible;fill:#2e3436;fill-opacity:1;fill-rule:evenodd;stroke:#000000;stroke-width:1.17391276;stroke-linecap:butt;stroke-linejoin:miter;stroke-miterlimit:10;stroke-dasharray:none;stroke-dashoffset:0;stroke-opacity:1;marker:none;marker-start:none;marker-mid:none;marker-end:none"
         transform="matrix(0.851852,0,0,0.851852,-3.926759,3.395528)"
         d="m 24.041631,21.837049 a 2.2980971,2.2980971 0 1 1 -4.596194,0 2.2980971,2.2980971 0 1 1 4.596194,0 z"
         inkscape:connector-curvature="0" />
      <path
         id="path6450"
         style="color:#000000;display:inline;overflow:visible;visibility:visible;opacity:0.28089887;fill:none;fill-opacity:1;fill-rule:evenodd;stroke:url(#linearGradient6458);stroke-width:1.00000012;stroke-linecap:butt;stroke-linejoin:miter;stroke-miterlimit:10;stroke-dasharray:none;stroke-dashoffset:0;stroke-opacity:1;marker:none;marker-start:none;marker-mid:none;marker-end:none"
         transform="matrix(0.800389,-0.599481,0.599481,0.800389,-15.2744,7.32784)"
         d="m 6.09375,22.15625 c -0.7982492,0 -1.5531304,0.446171 -2.1875,1.34375 -0.6343696,0.897579 -1.09375,2.234204 -1.09375,3.71875 0,1.484546 0.4593804,2.821171 1.09375,3.71875 0.6343696,0.897579 1.3892511,1.34375 2.1875,1.34375 0.7982492,0 1.5772839,-0.476389 2.21875,-1.375 0.6414661,-0.898611 1.09375,-2.206186 1.09375,-3.6875 0,-1.481314 -0.4522838,-2.788889 -1.09375,-3.6875 -0.6414662,-0.898611 -1.4205011,-1.375 -2.21875,-1.375 z"
         inkscape:connector-curvature="0" />
      <path
         id="path6446"
         style="color:#000000;display:inline;overflow:visible;visibility:visible;fill:#ffffff;fill-opacity:1;fill-rule:evenodd;stroke:none;stroke-width:0.9999997;stroke-linecap:butt;stroke-linejoin:miter;stroke-miterlimit:10;stroke-dasharray:none;stroke-dashoffset:0;stroke-opacity:1;marker:none;marker-start:none;marker-mid:none;marker-end:none"
         d="m 5.833631,23.251263 a 1.767767,2.1213202 0 1 1 -3.5355339,0 1.767767,2.1213202 0 1 1 3.5355339,0 z"
         inkscape:connector-curvature="0" />
      <path
         id="path4361"
         style="color:#000000;display:inline;overflow:visible;visibility:visible;fill:#ffffff;fill-opacity:1;fill-rule:evenodd;stroke:none;stroke-width:0.9999997;stroke-linecap:butt;stroke-linejoin:miter;stroke-miterlimit:10;stroke-dasharray:none;stroke-dashoffset:0;stroke-opacity:1;marker:none;marker-start:none;marker-mid:none;marker-end:none"
         transform="matrix(0.766666,0,0,0.766666,-2.556414,5.029841)"
         d="m 23.157747,20.953165 a 1.767767,1.767767 0 1 1 -3.535534,0 1.767767,1.767767 0 1 1 3.535534,0 z"
         inkscape:connector-curvature="0" />
      <path
         id="path6462"
         style="color:#000000;display:inline;overflow:visible;visibility:visible;fill:url(#radialGradient6474);fill-opacity:1;fill-rule:evenodd;stroke:#888a85;stroke-width:0.66666645;stroke-linecap:butt;stroke-linejoin:miter;stroke-miterlimit:10;stroke-dasharray:none;stroke-dashoffset:0;stroke-opacity:1;marker:none;marker-start:none;marker-mid:none;marker-end:none"
         transform="matrix(1.5,0,0,1.5,-82.16821,-10.91852)"
         d="m 72.655224,21.837049 a 3.1819806,3.1819806 0 1 1 -6.363961,0 3.1819806,3.1819806 0 1 1 6.363961,0 z"
         inkscape:connector-curvature="0" />
      <path
         id="path6464"
         style="color:#000000;display:inline;overflow:visible;visibility:visible;fill:#2e3436;fill-opacity:1;fill-rule:evenodd;stroke:#000000;stroke-width:0.9999997;stroke-linecap:butt;stroke-linejoin:miter;stroke-miterlimit:10;stroke-dasharray:none;stroke-dashoffset:0;stroke-opacity:1;marker:none;marker-start:none;marker-mid:none;marker-end:none"
         transform="translate(1.414216,0.707108)"
         d="m 24.041631,21.837049 a 2.2980971,2.2980971 0 1 1 -4.596194,0 2.2980971,2.2980971 0 1 1 4.596194,0 z"
         inkscape:connector-curvature="0" />
      <path
         id="path6466"
         style="color:#000000;display:inline;overflow:visible;visibility:visible;fill:#ffffff;fill-opacity:1;fill-rule:evenodd;stroke:none;stroke-width:0.9999997;stroke-linecap:butt;stroke-linejoin:miter;stroke-miterlimit:10;stroke-dasharray:none;stroke-dashoffset:0;stroke-opacity:1;marker:none;marker-start:none;marker-mid:none;marker-end:none"
         transform="matrix(0.9,0,0,0.9,3.022883,2.625648)"
         d="m 23.157747,20.953165 a 1.767767,1.767767 0 1 1 -3.535534,0 1.767767,1.767767 0 1 1 3.535534,0 z"
         inkscape:connector-curvature="0" />
      <g
         id="g8463"
         transform="matrix(-0.114852,-0.389864,0.389864,-0.114852,24.71507,29.68942)">
        <path
           id="path6937"
           style="color:#000000;display:inline;overflow:visible;visibility:visible;opacity:1;fill:url(#linearGradient6957);fill-opacity:1;fill-rule:nonzero;stroke:#673907;stroke-width:2.46045303;stroke-linecap:round;stroke-linejoin:miter;stroke-miterlimit:4;stroke-dasharray:none;stroke-dashoffset:0;stroke-opacity:1;marker:none;marker-start:none;marker-mid:none;marker-end:none"
           d="m -23.364209,23.568336 3.710098,3.469175 C -11.307128,20.656664 -2.5600338,6.9381374 -2.5600338,6.9381374 -0.58371893,4.6957251 -2.6769537,3.1876548 -4.7249404,4.5402186 c 0,0 -12.9703626,10.1148664 -18.6392686,19.0281174 z"
           inkscape:connector-curvature="0" />
        <path
           id="path6935"
           style="color:#000000;display:inline;overflow:visible;visibility:visible;opacity:1;fill:url(#linearGradient6945);fill-opacity:1;fill-rule:nonzero;stroke:#888a85;stroke-width:2.46045303;stroke-linecap:round;stroke-linejoin:miter;stroke-miterlimit:4;stroke-dasharray:none;stroke-dashoffset:0;stroke-opacity:1;marker:none;marker-start:none;marker-mid:none;marker-end:none"
           d="m -30.449715,32.813894 2.24632,1.93382 8.492766,-7.367031 0.275061,-0.705828 1.094405,-0.01782 c -0.4375,-1.5625 -2.941514,-4.383455 -4.816514,-4.383455 l 0.08202,1.090075 -0.669991,0.380027 -6.704066,9.070207 z"
           inkscape:connector-curvature="0" />
        <path
           id="path6985"
           style="color:#000000;display:inline;overflow:visible;visibility:visible;opacity:1;fill:none;fill-opacity:1;fill-rule:nonzero;stroke:#ffffff;stroke-width:2.46045327;stroke-linecap:round;stroke-linejoin:round;stroke-miterlimit:4;stroke-dasharray:none;stroke-dashoffset:0;stroke-opacity:1;marker:none;marker-start:none;marker-mid:none;marker-end:none"
           d="m -23.801371,28.376767 -4.364933,5.266471"
           inkscape:connector-curvature="0" />
        <path
           id="path6933"
           style="color:#000000;display:inline;overflow:visible;visibility:visible;opacity:1;fill:url(#radialGradient6969);fill-opacity:1;fill-rule:nonzero;stroke:none;stroke-width:0.2;stroke-linecap:round;stroke-linejoin:miter;stroke-miterlimit:4;stroke-dasharray:none;stroke-dashoffset:0;stroke-opacity:1;marker:none;marker-start:none;marker-mid:none;marker-end:none"
           d="m -45.341208,42.769835 c 10.443958,0 18.370039,1.24373 19.870605,-6.354738 1.209249,-6.123314 -7.210534,-9.057368 -11.38287,-3.590861 -4.019277,5.265971 -8.487735,9.945599 -8.487735,9.945599 z"
           inkscape:connector-curvature="0" />
        <path
           id="path6971"
           style="color:#000000;display:inline;overflow:visible;visibility:visible;opacity:0.52777782;fill:#ffffff;fill-opacity:1;fill-rule:nonzero;stroke:none;stroke-width:1;stroke-linecap:round;stroke-linejoin:miter;stroke-miterlimit:4;stroke-dasharray:none;stroke-dashoffset:0;stroke-opacity:1;marker:none;marker-start:none;marker-mid:none;marker-end:none"
           transform="matrix(2.069903,0,0,2.069903,-44.75012,-41.50978)"
           d="m 8.8749989,37.75 a 1.2499999,1.2499999 0 1 1 -2.4999997,0 1.2499999,1.2499999 0 1 1 2.4999997,0 z"
           inkscape:connector-curvature="0" />
        <path
           id="path6983"
           style="color:#000000;display:inline;overflow:visible;visibility:visible;opacity:1;fill:#ffffff;fill-opacity:1;fill-rule:nonzero;stroke:none;stroke-width:1;stroke-linecap:round;stroke-linejoin:miter;stroke-miterlimit:4;stroke-dasharray:none;stroke-dashoffset:0;stroke-opacity:1;marker:none;marker-start:none;marker-mid:none;marker-end:none"
           transform="matrix(1.396669,0,0,1.396669,-32.05526,-25.87664)"
           d="m 8.8749989,37.75 a 1.2499999,1.2499999 0 1 1 -2.4999997,0 1.2499999,1.2499999 0 1 1 2.4999997,0 z"
           inkscape:connector-curvature="0" />
        <path
           id="path1571"
           style="color:#000000;display:inline;overflow:visible;visibility:visible;opacity:0.42777776;fill:url(#linearGradient2452);fill-opacity:1;fill-rule:nonzero;stroke:none;stroke-width:1;stroke-linecap:round;stroke-linejoin:miter;stroke-miterlimit:4;stroke-dasharray:none;stroke-dashoffset:0;stroke-opacity:1;marker:none;marker-start:none;marker-mid:none;marker-end:none"
           d="m -38.543723,40.909242 c 0,0 3.72152,0.0943 6.116538,-1.411995 0.847351,-0.532923 1.515774,0.649985 0.493819,1.087367 -2.207394,0.944732 -6.610357,0.324628 -6.610357,0.324628 z"
           inkscape:connector-curvature="0" />
      </g>
      <path
         id="path8532"
         style="color:#000000;display:inline;overflow:visible;visibility:visible;fill:url(#linearGradient4330);fill-opacity:1;fill-rule:evenodd;stroke:none;stroke-width:0.9999997;stroke-linecap:butt;stroke-linejoin:miter;stroke-miterlimit:10;stroke-dasharray:none;stroke-dashoffset:0;stroke-opacity:1;marker:none;marker-start:none;marker-mid:none;marker-end:none"
         d="m 23.003067,31.736544 c 1.497372,0.143092 2.849629,-0.272213 3.411893,-0.474047 0.09822,-0.555386 0.536552,-1.621257 2.046088,-1.691468 l -0.53033,-0.928077 c 0,0 -1.966641,1.347921 -4.065864,1.745669 l -0.861787,1.347923 z"
         inkscape:connector-curvature="0" />
    </g>
  </g>
  <style
     id="style26"
     type="text/css">
	.specularity {opacity:0.5;}
	.low-specularity {opacity:0.25;}
	.full-specularity {opacity:1;}
	.black {fill:#000000;}
	.white {fill:#ffffff;}
	.outline-big {stroke-width:16;stroke:none;opacity:0.1;fill:none;}
	.outline-small {stroke-width:8;stroke:none;opacity:0.2;fill:none;}
	.stroke-highlight {fill:none;stroke:none;opacity:0.2;}
       	.base-shadow 	{fill:black;opacity:75;}
	</style>
</svg>
