<?xml version="1.0" encoding="UTF-8" standalone="no"?>
<!-- Created with Inkscape (http://www.inkscape.org/) -->

<svg
   xmlns:dc="http://purl.org/dc/elements/1.1/"
   xmlns:cc="http://creativecommons.org/ns#"
   xmlns:rdf="http://www.w3.org/1999/02/22-rdf-syntax-ns#"
   xmlns:svg="http://www.w3.org/2000/svg"
   xmlns="http://www.w3.org/2000/svg"
   xmlns:sodipodi="http://sodipodi.sourceforge.net/DTD/sodipodi-0.dtd"
   xmlns:inkscape="http://www.inkscape.org/namespaces/inkscape"
   width="300"
   height="300"
   viewBox="0 0 300 300"
   id="svg4651"
   version="1.1"
   inkscape:version="0.91 r13725"
   sodipodi:docname="github.svg">
  <defs
     id="defs4653" />
  <sodipodi:namedview
     id="base"
     pagecolor="#ffffff"
     bordercolor="#666666"
     borderopacity="1.0"
     inkscape:pageopacity="0.0"
     inkscape:pageshadow="2"
     inkscape:zoom="0.35"
     inkscape:cx="-207.40096"
     inkscape:cy="340.32127"
     inkscape:document-units="px"
     inkscape:current-layer="layer1"
     showgrid="false"
     units="px"
     inkscape:window-width="1366"
     inkscape:window-height="708"
     inkscape:window-x="0"
     inkscape:window-y="0"
     inkscape:window-maximized="1" />
  <metadata
     id="metadata4656">
    <rdf:RDF>
      <cc:Work
         rdf:about="">
        <dc:format>image/svg+xml</dc:format>
        <dc:type
           rdf:resource="http://purl.org/dc/dcmitype/StillImage" />
        <dc:title></dc:title>
      </cc:Work>
    </rdf:RDF>
  </metadata>
  <g
     inkscape:label="Layer 1"
     inkscape:groupmode="layer"
     id="layer1"
     transform="translate(0,-752.36216)">
    <path
       d="m 295.96229,903.46034 c 0,80.92223 -65.60161,146.52106 -146.52157,146.52106 -80.920836,0 -146.520395,-65.59883 -146.520395,-146.52106 0,-80.91937 65.599559,-146.51805 146.520395,-146.51805 80.91996,0 146.52157,65.59868 146.52157,146.51805"
       style="fill:#ececec;fill-opacity:1;fill-rule:nonzero;stroke:none"
       id="path28"
       inkscape:connector-curvature="0" />
  </g>
  <g
     inkscape:groupmode="layer"
     id="layer13"
     inkscape:label="Layer 2">
    <path
       d="m 147.14365,53.936289 c -52.772891,0 -95.5663,42.78549 -95.5663,95.566301 0,42.22369 27.382653,78.04602 65.35406,90.68259 4.77611,0.88463 6.52956,-2.07313 6.52956,-4.59728 0,-2.27885 -0.0886,-9.80698 -0.12977,-17.79247 -26.586634,5.78101 -32.196733,-11.27558 -32.196733,-11.27558 -4.347232,-11.04611 -10.610916,-13.98331 -10.610916,-13.98331 -8.670725,-5.93135 0.653588,-5.80949 0.653588,-5.80949 9.59651,0.67258 14.649556,9.84971 14.649556,9.84971 8.523545,14.60841 22.356515,10.38462 27.809935,7.94276 0.85774,-6.17665 3.33441,-10.39411 6.06745,-12.77899 -21.22658,-2.41654 -43.540364,-10.61092 -43.540364,-47.22926 0,-10.43368 3.733206,-18.95881 9.846553,-25.65136 -0.992251,-2.40862 -4.26336,-12.12699 0.925784,-25.290545 0,0 8.025047,-2.568454 26.287537,9.795915 7.62308,-2.11743 15.79847,-3.17932 23.92006,-3.21573 8.12158,0.0365 16.3033,1.0983 23.94063,3.21573 18.24033,-12.364369 26.2543,-9.795915 26.2543,-9.795915 5.2018,13.163555 1.92912,22.881925 0.93687,25.290545 6.12758,6.69255 9.83546,15.21768 9.83546,25.65136 0,36.70538 -22.35651,44.7874 -43.63689,47.15329 3.42777,2.96568 6.48207,8.78151 6.48207,17.69753 0,12.7869 -0.11077,23.07814 -0.11077,26.22581 0,2.54314 1.72021,5.52306 6.56436,4.58462 37.95085,-12.65081 65.29868,-48.46048 65.29868,-90.66993 0,-52.780811 -42.78707,-95.566301 -95.56471,-95.566301"
       style="fill:#120219;fill-opacity:1;fill-rule:evenodd;stroke:none"
       id="path18"
       inkscape:connector-curvature="0" />
  </g>
</svg>
