<?xml version="1.0" encoding="UTF-8" standalone="no"?>
<!-- Created with Inkscape (http://www.inkscape.org/) -->

<svg
   xmlns:dc="http://purl.org/dc/elements/1.1/"
   xmlns:cc="http://creativecommons.org/ns#"
   xmlns:rdf="http://www.w3.org/1999/02/22-rdf-syntax-ns#"
   xmlns:svg="http://www.w3.org/2000/svg"
   xmlns="http://www.w3.org/2000/svg"
   xmlns:sodipodi="http://sodipodi.sourceforge.net/DTD/sodipodi-0.dtd"
   xmlns:inkscape="http://www.inkscape.org/namespaces/inkscape"
   width="1000"
   height="1000"
   viewBox="0 0 264.58332 264.58334"
   version="1.1"
   id="svg8"
   inkscape:version="0.91 r13725"
   sodipodi:docname="js.svg">
  <defs
     id="defs2">
    <clipPath
       clipPathUnits="userSpaceOnUse"
       id="clipPath36">
      <path
         d="m 0,141.732 141.732,0 L 141.732,0 0,0 0,141.732 Z"
         id="path38"
         inkscape:connector-curvature="0" />
    </clipPath>
  </defs>
  <sodipodi:namedview
     id="base"
     pagecolor="#ffffff"
     bordercolor="#666666"
     borderopacity="1.0"
     inkscape:pageopacity="0.0"
     inkscape:pageshadow="2"
     inkscape:zoom="0.70710678"
     inkscape:cx="226.82934"
     inkscape:cy="520.05204"
     inkscape:document-units="mm"
     inkscape:current-layer="layer28"
     showgrid="false"
     units="px"
     inkscape:window-width="1366"
     inkscape:window-height="708"
     inkscape:window-x="0"
     inkscape:window-y="0"
     inkscape:window-maximized="1"
     showguides="false"
     inkscape:guide-bbox="true" />
  <metadata
     id="metadata5">
    <rdf:RDF>
      <cc:Work
         rdf:about="">
        <dc:format>image/svg+xml</dc:format>
        <dc:type
           rdf:resource="http://purl.org/dc/dcmitype/StillImage" />
        <dc:title />
      </cc:Work>
    </rdf:RDF>
  </metadata>
  <g
     inkscape:groupmode="layer"
     id="layer25"
     inkscape:label="background"
     style="display:inline">
    <circle
       style="opacity:0.95;fill:#ffffff;fill-opacity:0.48627451;stroke:#ffffff;stroke-width:3.59625001;stroke-miterlimit:4;stroke-dasharray:none;stroke-opacity:1"
       id="path6009"
       cx="132.29164"
       cy="127"
       r="114.37157" />
  </g>
  <g
     inkscape:groupmode="layer"
     id="layer28"
     inkscape:label="what">
    <g
       id="g12"
       transform="matrix(1.4270017,0,0,-1.4270018,188.9442,77.025713)">
      <path
         d="m 0,5.1915375 -40.275,0 -40.276,0 7.548,-81.8850015 32.728,-9.279 32.715,9.279 L 0,5.1915375 Z"
         style="fill:#e6a329;fill-opacity:1;fill-rule:nonzero;stroke:none"
         id="path14"
         inkscape:connector-curvature="0" />
    </g>
    <g
       id="g16"
       transform="matrix(1.4270017,0,0,-1.4270018,131.47112,83.369402)">
      <path
         d="m 0,2.9665929 0,-77.5590009 26.502,7.513 6.454,70.0460009 -32.956,0 z"
         style="fill:#f1bf22;fill-opacity:1;fill-rule:nonzero;stroke:none"
         id="path18"
         inkscape:connector-curvature="0" />
    </g>
    <g
       id="g20"
       transform="matrix(1.4270017,0,0,-1.4270018,161.55948,100.88262)">
      <path
         d="m 0,5.1915375 -40.763,0 -2.833,-30.6600015 0.06,0.192 34.626,0 -1.13,-12.969 -11.045,-3.184 -11.214,3.232 -0.673,7.849 -10.18,0 1.455,-15.685 20.612,-5.853 20.612,5.853 2.837,30.781 -36.742,0 0.468,10.2640014 25.503,0 0.375,-5.8750014 10.271,0 L 0,5.1915375 Z"
         style="fill:#ffffff;fill-opacity:1;fill-rule:nonzero;stroke:none"
         id="path22"
         inkscape:connector-curvature="0" />
    </g>
    <g
       id="g24"
       transform="matrix(1.4270017,0,0,-1.4270018,114.50879,151.59836)">
      <path
         d="m 0,5.1915375 -10.18,0 1.454,-15.6850015 20.613,-5.84 0,10.4440012 L 0.673,-2.6574626 0,5.1915375 Z m 11.887,35.5399985 -19.679,0 -2.833,-30.659999 0.061,0.192 22.451,0 0,10.023999 -11.876,0 0.468,10.264 11.408,0 0,10.18 z"
         style="fill:#ebebeb;fill-opacity:1;fill-rule:nonzero;stroke:none"
         id="path26"
         inkscape:connector-curvature="0" />
    </g>
    <g
       id="g28"
       transform="matrix(1.4270017,0,0,-1.4270018,120.28572,59.78951)" />
    <g
       transform="matrix(1.4270017,0,0,-1.4270018,30.344941,227.34092)"
       id="g32">
      <g
         id="g34"
         clip-path="url(#clipPath36)">
        <g
           id="g40"
           transform="translate(85.8682,127.4814)" />
      </g>
    </g>
  </g>
</svg>
