<!--?xml version="1.0" encoding="UTF-8" standalone="no"?-->
<!-- Generator: Adobe Illustrator 16.0.0, SVG Export Plug-In . SVG Version: 6.00 Build 0)  -->

<svg xmlns:dc="http://purl.org/dc/elements/1.1/" xmlns:cc="http://creativecommons.org/ns#" xmlns:rdf="http://www.w3.org/1999/02/22-rdf-syntax-ns#" xmlns:svg="http://www.w3.org/2000/svg" xmlns="http://www.w3.org/2000/svg" xmlns:sodipodi="http://sodipodi.sourceforge.net/DTD/sodipodi-0.dtd" xmlns:inkscape="http://www.inkscape.org/namespaces/inkscape" version="1.1" id="Layer_1" x="0px" y="0px" width="800px" height="800px" viewBox="0 0 800 800" enable-background="new 0 0 800 800" xml:space="preserve" inkscape:version="0.92.0 unknown" sodipodi:docname="strategy_backup.svg" style=""><metadata id="metadata106"><rdf:rdf><cc:work rdf:about=""><dc:format>image/svg+xml</dc:format><dc:type rdf:resource="http://purl.org/dc/dcmitype/StillImage"></dc:type></cc:work></rdf:rdf></metadata><defs id="defs104"></defs><sodipodi:namedview pagecolor="#ffffff" bordercolor="#666666" borderopacity="1" objecttolerance="10" gridtolerance="10" guidetolerance="10" inkscape:pageopacity="0" inkscape:pageshadow="2" inkscape:window-width="1366" inkscape:window-height="714" id="namedview102" showgrid="false" inkscape:zoom="0.35355339" inkscape:cx="68.072736" inkscape:cy="724.4657" inkscape:window-x="0" inkscape:window-y="0" inkscape:window-maximized="1" inkscape:current-layer="Layer_1"></sodipodi:namedview><g id="g3"><g id="g5"><path fill="#B3B3B3" d="M397.821,709.541c-10.334,3.638-29.45,4.506-42.69,1.938L87.346,659.588    c-13.241-2.563-15.581-7.588-5.262-11.221l305.453-107.508c10.334-3.638,29.43-4.506,42.674-1.943l267.797,48.448    c13.248,2.563,16.32,8.999,5.992,12.636L397.821,709.541z" id="path7" class="zUfEXHXA_0"></path><path fill="#B3B3B3" d="M75.953,647.897c0.159,0.005,634.063-56.182,634.063-56.182" id="path9" class="zUfEXHXA_1"></path><g id="g11"><path fill="#F2F2F2" d="M397.834,705.396c-10.334,3.633-29.45,4.501-42.694,1.935L87.356,655.447     c-13.238-2.567-15.582-7.593-5.26-11.23l305.45-107.503c10.337-3.642,29.435-4.509,42.678-1.943L698,586.658     c13.244,2.566,15.612,7.592,5.278,11.225L397.834,705.396z" id="path13" class="zUfEXHXA_2"></path><path fill="#CCC8C8" id="polygon15" d="M116.406,644.717L414.094,539.942L683.744,592.188L386.056,696.964Z" class="zUfEXHXA_3"></path><path fill="#D8D8D8" id="polygon17" d="M386.056,696.964L683.744,592.188L414.094,539.942Z" class="zUfEXHXA_4"></path><path fill="#6D6E70" d="M227.815,679.076c5.816,1.127,14.213,0.741,18.738-0.845c4.522-1.594,3.5-3.808-2.316-4.935     c-5.793-1.119-14.206-0.736-18.728,0.854C220.984,675.74,222.019,677.953,227.815,679.076z" id="path19" class="zUfEXHXA_5"></path><path fill="#6D6E70" d="M533.453,560.089c-0.966-0.193-1.135-0.561-0.381-0.825l0,0c0.781-0.273,2.19-0.34,3.159-0.156     l41.856,8.116c0.972,0.185,1.149,0.552,0.371,0.825l0,0c-0.759,0.27-2.175,0.336-3.149,0.151L533.453,560.089z" id="path21" class="zUfEXHXA_6"></path></g></g><g id="g23"><path fill="#F6921E" d="M324.775,499.318" id="path25" class="zUfEXHXA_7"></path></g></g><linearGradient id="SVGID_1_" gradientUnits="userSpaceOnUse" x1="368.333" y1="101.6816" x2="407.8422" y2="601.5077"><stop offset="0.4477" style="stop-color:#FFFFFF" id="stop28"></stop><stop offset="0.535" style="stop-color:#FBFBFB;stop-opacity:0.8964" id="stop30"></stop><stop offset="0.614" style="stop-color:#F1F0F0;stop-opacity:0.8026" id="stop32"></stop><stop offset="0.6898" style="stop-color:#DFDEDE;stop-opacity:0.7126" id="stop34"></stop><stop offset="0.7636" style="stop-color:#C5C4C4;stop-opacity:0.6249" id="stop36"></stop><stop offset="0.8361" style="stop-color:#A4A3A3;stop-opacity:0.5389" id="stop38"></stop><stop offset="0.9074" style="stop-color:#7C7A7A;stop-opacity:0.4542" id="stop40"></stop><stop offset="0.9767" style="stop-color:#4D4A4B;stop-opacity:0.372" id="stop42"></stop><stop offset="1" style="stop-color:#3C3839;stop-opacity:0.3443" id="stop44"></stop><stop offset="1" style="stop-color:#000000;stop-opacity:0.3" id="stop46"></stop></linearGradient><path style="opacity:0.2;fill:url(#SVGID_1_)" d="M 683.75391,592.19141 116.41438,644.7209 75.992187,249.00391 178.57724,121.76529 289,223 l 126,-73 87,29 100,-47 c 0,0 108,47 107.99219,47.00391 z" id="polygon48" inkscape:connector-curvature="0" sodipodi:nodetypes="cccccccccc" class="zUfEXHXA_8"></path><path fill="#E82E2E" id="circle50" d="M66,358A10,10 0,1,1 86,358A10,10 0,1,1 66,358" class="zUfEXHXA_9"></path><path fill="#757474" stroke="#757575" stroke-width="2" stroke-miterlimit="10" id="line52" d="M76,358L180,472" class="zUfEXHXA_10"></path><path fill="none" stroke="#757575" stroke-width="2" stroke-miterlimit="10" id="line54" d="M180,472L289,390" class="zUfEXHXA_11"></path><path fill="none" stroke="#757575" stroke-width="2" stroke-miterlimit="10" id="line56" d="M289,390L415,435" class="zUfEXHXA_12"></path><path fill="none" stroke="#757575" stroke-width="2" stroke-miterlimit="10" id="line58" d="M415,435L502,492" class="zUfEXHXA_13"></path><path fill="none" stroke="#757575" stroke-width="2" stroke-miterlimit="10" id="line60" d="M502,492L602,400" class="zUfEXHXA_14"></path><path fill="none" stroke="#757575" stroke-width="2" stroke-miterlimit="10" id="line62" d="M602,400L710,358" class="zUfEXHXA_15"></path><path fill="#E82E2E" id="circle64" d="M170,472A10,10 0,1,1 190,472A10,10 0,1,1 170,472" class="zUfEXHXA_16"></path><path fill="#E82E2E" id="circle66" d="M279,390A10,10 0,1,1 299,390A10,10 0,1,1 279,390" class="zUfEXHXA_17"></path><path fill="#E82E2E" id="circle68" d="M492,492A10,10 0,1,1 512,492A10,10 0,1,1 492,492" class="zUfEXHXA_18"></path><path fill="#E82E2E" id="circle70" d="M405,435A10,10 0,1,1 425,435A10,10 0,1,1 405,435" class="zUfEXHXA_19"></path><path fill="#E82E2E" id="circle72" d="M592,400A10,10 0,1,1 612,400A10,10 0,1,1 592,400" class="zUfEXHXA_20"></path><path fill="#E82E2E" id="circle74" d="M700,358A10,10 0,1,1 720,358A10,10 0,1,1 700,358" class="zUfEXHXA_21"></path><path fill="none" stroke="#757575" stroke-width="2" stroke-miterlimit="10" id="line76" d="M76,249L180,122" class="zUfEXHXA_22"></path><path fill="none" stroke="#757575" stroke-width="2" stroke-miterlimit="10" id="line78" d="M180,122L289,223" class="zUfEXHXA_23"></path><path fill="none" stroke="#757575" stroke-width="2" stroke-miterlimit="10" id="line80" d="M289,223L415,150" class="zUfEXHXA_24"></path><path fill="none" stroke="#757575" stroke-width="2" stroke-miterlimit="10" id="line82" d="M415,150L502,179" class="zUfEXHXA_25"></path><path fill="none" stroke="#757575" stroke-width="2" stroke-miterlimit="10" id="line84" d="M502,179L602,132" class="zUfEXHXA_26"></path><path fill="none" stroke="#757575" stroke-width="2" stroke-miterlimit="10" id="line86" d="M602,132L710,179" class="zUfEXHXA_27"></path><path fill="#E82E2E" id="circle88" d="M170,122A10,10 0,1,1 190,122A10,10 0,1,1 170,122" class="zUfEXHXA_28"></path><path fill="#E82E2E" id="circle90" d="M66,249A10,10 0,1,1 86,249A10,10 0,1,1 66,249" class="zUfEXHXA_29"></path><path fill="#E82E2E" id="circle92" d="M279,223A10,10 0,1,1 299,223A10,10 0,1,1 279,223" class="zUfEXHXA_30"></path><path fill="#E82E2E" id="circle94" d="M492,179A10,10 0,1,1 512,179A10,10 0,1,1 492,179" class="zUfEXHXA_31"></path><path fill="#E82E2E" id="circle96" d="M405,150A10,10 0,1,1 425,150A10,10 0,1,1 405,150" class="zUfEXHXA_32"></path><path fill="#E82E2E" id="circle98" d="M592,132A10,10 0,1,1 612,132A10,10 0,1,1 592,132" class="zUfEXHXA_33"></path><path fill="#E82E2E" id="circle100" d="M700,179A10,10 0,1,1 720,179A10,10 0,1,1 700,179" class="zUfEXHXA_34"></path><style>.zUfEXHXA_0{stroke-dasharray:1327 1329;stroke-dashoffset:1328;animation:zUfEXHXA_draw_0 4500ms ease-in 0ms infinite,zUfEXHXA_fade 4500ms linear 0ms infinite;}.zUfEXHXA_1{stroke-dasharray:637 639;stroke-dashoffset:638;animation:zUfEXHXA_draw_1 4500ms ease-in 0ms infinite,zUfEXHXA_fade 4500ms linear 0ms infinite;}.zUfEXHXA_2{stroke-dasharray:1325 1327;stroke-dashoffset:1326;animation:zUfEXHXA_draw_2 4500ms ease-in 0ms infinite,zUfEXHXA_fade 4500ms linear 0ms infinite;}.zUfEXHXA_3{stroke-dasharray:1181 1183;stroke-dashoffset:1182;animation:zUfEXHXA_draw_3 4500ms ease-in 0ms infinite,zUfEXHXA_fade 4500ms linear 0ms infinite;}.zUfEXHXA_4{stroke-dasharray:750 752;stroke-dashoffset:751;animation:zUfEXHXA_draw_4 4500ms ease-in 0ms infinite,zUfEXHXA_fade 4500ms linear 0ms infinite;}.zUfEXHXA_5{stroke-dasharray:58 60;stroke-dashoffset:59;animation:zUfEXHXA_draw_5 4500ms ease-in 0ms infinite,zUfEXHXA_fade 4500ms linear 0ms infinite;}.zUfEXHXA_6{stroke-dasharray:95 97;stroke-dashoffset:96;animation:zUfEXHXA_draw_6 4500ms ease-in 0ms infinite,zUfEXHXA_fade 4500ms linear 0ms infinite;}.zUfEXHXA_7{stroke-dasharray:0 2;stroke-dashoffset:1;animation:zUfEXHXA_draw_7 4500ms ease-in 0ms infinite,zUfEXHXA_fade 4500ms linear 0ms infinite;}.zUfEXHXA_8{stroke-dasharray:2161 2163;stroke-dashoffset:2162;animation:zUfEXHXA_draw_8 4500ms ease-in 0ms infinite,zUfEXHXA_fade 4500ms linear 0ms infinite;}.zUfEXHXA_9{stroke-dasharray:63 65;stroke-dashoffset:64;animation:zUfEXHXA_draw_9 4500ms ease-in 0ms infinite,zUfEXHXA_fade 4500ms linear 0ms infinite;}.zUfEXHXA_10{stroke-dasharray:155 157;stroke-dashoffset:156;animation:zUfEXHXA_draw_10 4500ms ease-in 0ms infinite,zUfEXHXA_fade 4500ms linear 0ms infinite;}.zUfEXHXA_11{stroke-dasharray:137 139;stroke-dashoffset:138;animation:zUfEXHXA_draw_11 4500ms ease-in 0ms infinite,zUfEXHXA_fade 4500ms linear 0ms infinite;}.zUfEXHXA_12{stroke-dasharray:134 136;stroke-dashoffset:135;animation:zUfEXHXA_draw_12 4500ms ease-in 0ms infinite,zUfEXHXA_fade 4500ms linear 0ms infinite;}.zUfEXHXA_13{stroke-dasharray:105 107;stroke-dashoffset:106;animation:zUfEXHXA_draw_13 4500ms ease-in 0ms infinite,zUfEXHXA_fade 4500ms linear 0ms infinite;}.zUfEXHXA_14{stroke-dasharray:136 138;stroke-dashoffset:137;animation:zUfEXHXA_draw_14 4500ms ease-in 0ms infinite,zUfEXHXA_fade 4500ms linear 0ms infinite;}.zUfEXHXA_15{stroke-dasharray:116 118;stroke-dashoffset:117;animation:zUfEXHXA_draw_15 4500ms ease-in 0ms infinite,zUfEXHXA_fade 4500ms linear 0ms infinite;}.zUfEXHXA_16{stroke-dasharray:63 65;stroke-dashoffset:64;animation:zUfEXHXA_draw_16 4500ms ease-in 0ms infinite,zUfEXHXA_fade 4500ms linear 0ms infinite;}.zUfEXHXA_17{stroke-dasharray:63 65;stroke-dashoffset:64;animation:zUfEXHXA_draw_17 4500ms ease-in 0ms infinite,zUfEXHXA_fade 4500ms linear 0ms infinite;}.zUfEXHXA_18{stroke-dasharray:63 65;stroke-dashoffset:64;animation:zUfEXHXA_draw_18 4500ms ease-in 0ms infinite,zUfEXHXA_fade 4500ms linear 0ms infinite;}.zUfEXHXA_19{stroke-dasharray:63 65;stroke-dashoffset:64;animation:zUfEXHXA_draw_19 4500ms ease-in 0ms infinite,zUfEXHXA_fade 4500ms linear 0ms infinite;}.zUfEXHXA_20{stroke-dasharray:63 65;stroke-dashoffset:64;animation:zUfEXHXA_draw_20 4500ms ease-in 0ms infinite,zUfEXHXA_fade 4500ms linear 0ms infinite;}.zUfEXHXA_21{stroke-dasharray:63 65;stroke-dashoffset:64;animation:zUfEXHXA_draw_21 4500ms ease-in 0ms infinite,zUfEXHXA_fade 4500ms linear 0ms infinite;}.zUfEXHXA_22{stroke-dasharray:165 167;stroke-dashoffset:166;animation:zUfEXHXA_draw_22 4500ms ease-in 0ms infinite,zUfEXHXA_fade 4500ms linear 0ms infinite;}.zUfEXHXA_23{stroke-dasharray:149 151;stroke-dashoffset:150;animation:zUfEXHXA_draw_23 4500ms ease-in 0ms infinite,zUfEXHXA_fade 4500ms linear 0ms infinite;}.zUfEXHXA_24{stroke-dasharray:146 148;stroke-dashoffset:147;animation:zUfEXHXA_draw_24 4500ms ease-in 0ms infinite,zUfEXHXA_fade 4500ms linear 0ms infinite;}.zUfEXHXA_25{stroke-dasharray:92 94;stroke-dashoffset:93;animation:zUfEXHXA_draw_25 4500ms ease-in 0ms infinite,zUfEXHXA_fade 4500ms linear 0ms infinite;}.zUfEXHXA_26{stroke-dasharray:111 113;stroke-dashoffset:112;animation:zUfEXHXA_draw_26 4500ms ease-in 0ms infinite,zUfEXHXA_fade 4500ms linear 0ms infinite;}.zUfEXHXA_27{stroke-dasharray:118 120;stroke-dashoffset:119;animation:zUfEXHXA_draw_27 4500ms ease-in 0ms infinite,zUfEXHXA_fade 4500ms linear 0ms infinite;}.zUfEXHXA_28{stroke-dasharray:63 65;stroke-dashoffset:64;animation:zUfEXHXA_draw_28 4500ms ease-in 0ms infinite,zUfEXHXA_fade 4500ms linear 0ms infinite;}.zUfEXHXA_29{stroke-dasharray:63 65;stroke-dashoffset:64;animation:zUfEXHXA_draw_29 4500ms ease-in 0ms infinite,zUfEXHXA_fade 4500ms linear 0ms infinite;}.zUfEXHXA_30{stroke-dasharray:63 65;stroke-dashoffset:64;animation:zUfEXHXA_draw_30 4500ms ease-in 0ms infinite,zUfEXHXA_fade 4500ms linear 0ms infinite;}.zUfEXHXA_31{stroke-dasharray:63 65;stroke-dashoffset:64;animation:zUfEXHXA_draw_31 4500ms ease-in 0ms infinite,zUfEXHXA_fade 4500ms linear 0ms infinite;}.zUfEXHXA_32{stroke-dasharray:63 65;stroke-dashoffset:64;animation:zUfEXHXA_draw_32 4500ms ease-in 0ms infinite,zUfEXHXA_fade 4500ms linear 0ms infinite;}.zUfEXHXA_33{stroke-dasharray:63 65;stroke-dashoffset:64;animation:zUfEXHXA_draw_33 4500ms ease-in 0ms infinite,zUfEXHXA_fade 4500ms linear 0ms infinite;}.zUfEXHXA_34{stroke-dasharray:63 65;stroke-dashoffset:64;animation:zUfEXHXA_draw_34 4500ms ease-in 0ms infinite,zUfEXHXA_fade 4500ms linear 0ms infinite;}@keyframes zUfEXHXA_draw{100%{stroke-dashoffset:0;}}@keyframes zUfEXHXA_fade{0%{stroke-opacity:1;}91.11111111111111%{stroke-opacity:1;}100%{stroke-opacity:0;}}@keyframes zUfEXHXA_draw_0{4.444444444444445%{stroke-dashoffset: 1328}7.0964664114938705%{ stroke-dashoffset: 0;}100%{ stroke-dashoffset: 0;}}@keyframes zUfEXHXA_draw_1{7.0964664114938705%{stroke-dashoffset: 638}8.370555278193821%{ stroke-dashoffset: 0;}100%{ stroke-dashoffset: 0;}}@keyframes zUfEXHXA_draw_2{8.370555278193821%{stroke-dashoffset: 1326}11.018583236256726%{ stroke-dashoffset: 0;}100%{ stroke-dashoffset: 0;}}@keyframes zUfEXHXA_draw_3{11.018583236256726%{stroke-dashoffset: 1182}13.379042547290176%{ stroke-dashoffset: 0;}100%{ stroke-dashoffset: 0;}}@keyframes zUfEXHXA_draw_4{13.379042547290176%{stroke-dashoffset: 751}14.878792921728518%{ stroke-dashoffset: 0;}100%{ stroke-dashoffset: 0;}}@keyframes zUfEXHXA_draw_5{14.878792921728518%{stroke-dashoffset: 59}14.996616186830863%{ stroke-dashoffset: 0;}100%{ stroke-dashoffset: 0;}}@keyframes zUfEXHXA_draw_6{14.996616186830863%{stroke-dashoffset: 96}15.188328618183835%{ stroke-dashoffset: 0;}100%{ stroke-dashoffset: 0;}}@keyframes zUfEXHXA_draw_7{15.188328618183835%{stroke-dashoffset: 1}15.190325622677097%{ stroke-dashoffset: 0;}100%{ stroke-dashoffset: 0;}}@keyframes zUfEXHXA_draw_8{15.190325622677095%{stroke-dashoffset: 2162}19.50784933710545%{ stroke-dashoffset: 0;}100%{ stroke-dashoffset: 0;}}@keyframes zUfEXHXA_draw_9{19.50784933710545%{stroke-dashoffset: 64}19.6356576246741%{ stroke-dashoffset: 0;}100%{ stroke-dashoffset: 0;}}@keyframes zUfEXHXA_draw_10{19.6356576246741%{stroke-dashoffset: 156}19.947190325622678%{ stroke-dashoffset: 0;}100%{ stroke-dashoffset: 0;}}@keyframes zUfEXHXA_draw_11{19.947190325622678%{stroke-dashoffset: 138}20.222776945692573%{ stroke-dashoffset: 0;}100%{ stroke-dashoffset: 0;}}@keyframes zUfEXHXA_draw_12{20.222776945692573%{stroke-dashoffset: 135}20.492372552282685%{ stroke-dashoffset: 0;}100%{ stroke-dashoffset: 0;}}@keyframes zUfEXHXA_draw_13{20.492372552282685%{stroke-dashoffset: 106}20.70405502856826%{ stroke-dashoffset: 0;}100%{ stroke-dashoffset: 0;}}@keyframes zUfEXHXA_draw_14{20.70405502856826%{stroke-dashoffset: 137}20.977644644144892%{ stroke-dashoffset: 0;}100%{ stroke-dashoffset: 0;}}@keyframes zUfEXHXA_draw_15{20.977644644144892%{stroke-dashoffset: 117}21.211294169856323%{ stroke-dashoffset: 0;}100%{ stroke-dashoffset: 0;}}@keyframes zUfEXHXA_draw_16{21.211294169856327%{stroke-dashoffset: 64}21.339102457424975%{ stroke-dashoffset: 0;}100%{ stroke-dashoffset: 0;}}@keyframes zUfEXHXA_draw_17{21.339102457424975%{stroke-dashoffset: 64}21.466910744993623%{ stroke-dashoffset: 0;}100%{ stroke-dashoffset: 0;}}@keyframes zUfEXHXA_draw_18{21.466910744993623%{stroke-dashoffset: 64}21.594719032562267%{ stroke-dashoffset: 0;}100%{ stroke-dashoffset: 0;}}@keyframes zUfEXHXA_draw_19{21.594719032562267%{stroke-dashoffset: 64}21.722527320130915%{ stroke-dashoffset: 0;}100%{ stroke-dashoffset: 0;}}@keyframes zUfEXHXA_draw_20{21.722527320130915%{stroke-dashoffset: 64}21.850335607699563%{ stroke-dashoffset: 0;}100%{ stroke-dashoffset: 0;}}@keyframes zUfEXHXA_draw_21{21.850335607699563%{stroke-dashoffset: 64}21.97814389526821%{ stroke-dashoffset: 0;}100%{ stroke-dashoffset: 0;}}@keyframes zUfEXHXA_draw_22{21.97814389526821%{stroke-dashoffset: 166}22.309646641149385%{ stroke-dashoffset: 0;}100%{ stroke-dashoffset: 0;}}@keyframes zUfEXHXA_draw_23{22.309646641149385%{stroke-dashoffset: 150}22.609197315138402%{ stroke-dashoffset: 0;}100%{ stroke-dashoffset: 0;}}@keyframes zUfEXHXA_draw_24{22.609197315138402%{stroke-dashoffset: 147}22.902756975647637%{ stroke-dashoffset: 0;}100%{ stroke-dashoffset: 0;}}@keyframes zUfEXHXA_draw_25{22.90275697564764%{stroke-dashoffset: 93}23.08847839352083%{ stroke-dashoffset: 0;}100%{ stroke-dashoffset: 0;}}@keyframes zUfEXHXA_draw_26{23.08847839352083%{stroke-dashoffset: 112}23.312142896765963%{ stroke-dashoffset: 0;}100%{ stroke-dashoffset: 0;}}@keyframes zUfEXHXA_draw_27{23.31214289676596%{stroke-dashoffset: 119}23.54978643146391%{ stroke-dashoffset: 0;}100%{ stroke-dashoffset: 0;}}@keyframes zUfEXHXA_draw_28{23.54978643146391%{stroke-dashoffset: 64}23.67759471903256%{ stroke-dashoffset: 0;}100%{ stroke-dashoffset: 0;}}@keyframes zUfEXHXA_draw_29{23.67759471903256%{stroke-dashoffset: 64}23.805403006601207%{ stroke-dashoffset: 0;}100%{ stroke-dashoffset: 0;}}@keyframes zUfEXHXA_draw_30{23.805403006601207%{stroke-dashoffset: 64}23.933211294169855%{ stroke-dashoffset: 0;}100%{ stroke-dashoffset: 0;}}@keyframes zUfEXHXA_draw_31{23.933211294169855%{stroke-dashoffset: 64}24.061019581738503%{ stroke-dashoffset: 0;}100%{ stroke-dashoffset: 0;}}@keyframes zUfEXHXA_draw_32{24.061019581738503%{stroke-dashoffset: 64}24.18882786930715%{ stroke-dashoffset: 0;}100%{ stroke-dashoffset: 0;}}@keyframes zUfEXHXA_draw_33{24.18882786930715%{stroke-dashoffset: 64}24.3166361568758%{ stroke-dashoffset: 0;}100%{ stroke-dashoffset: 0;}}@keyframes zUfEXHXA_draw_34{24.3166361568758%{stroke-dashoffset: 64}24.444444444444443%{ stroke-dashoffset: 0;}100%{ stroke-dashoffset: 0;}}</style></svg>