<?xml version="1.0" encoding="UTF-8" standalone="no"?>
<!-- Generator: Adobe Illustrator 16.0.0, SVG Export Plug-In . SVG Version: 6.00 Build 0)  -->

<svg
   xmlns:dc="http://purl.org/dc/elements/1.1/"
   xmlns:cc="http://creativecommons.org/ns#"
   xmlns:rdf="http://www.w3.org/1999/02/22-rdf-syntax-ns#"
   xmlns:svg="http://www.w3.org/2000/svg"
   xmlns="http://www.w3.org/2000/svg"
   xmlns:sodipodi="http://sodipodi.sourceforge.net/DTD/sodipodi-0.dtd"
   xmlns:inkscape="http://www.inkscape.org/namespaces/inkscape"
   version="1.1"
   id="Layer_1"
   x="0px"
   y="0px"
   width="800px"
   height="800px"
   viewBox="0 0 800 800"
   enable-background="new 0 0 800 800"
   xml:space="preserve"
   inkscape:version="0.92.0 unknown"
   sodipodi:docname="strategy_backup.svg"><metadata
     id="metadata106"><rdf:RDF><cc:Work
         rdf:about=""><dc:format>image/svg+xml</dc:format><dc:type
           rdf:resource="http://purl.org/dc/dcmitype/StillImage" /></cc:Work></rdf:RDF></metadata><defs
     id="defs104" /><sodipodi:namedview
     pagecolor="#ffffff"
     bordercolor="#666666"
     borderopacity="1"
     objecttolerance="10"
     gridtolerance="10"
     guidetolerance="10"
     inkscape:pageopacity="0"
     inkscape:pageshadow="2"
     inkscape:window-width="1366"
     inkscape:window-height="714"
     id="namedview102"
     showgrid="false"
     inkscape:zoom="0.35355339"
     inkscape:cx="68.072736"
     inkscape:cy="724.4657"
     inkscape:window-x="0"
     inkscape:window-y="0"
     inkscape:window-maximized="1"
     inkscape:current-layer="Layer_1" /><g
     id="g3"><g
       id="g5"><path
         fill="#B3B3B3"
         d="M397.821,709.541c-10.334,3.638-29.45,4.506-42.69,1.938L87.346,659.588    c-13.241-2.563-15.581-7.588-5.262-11.221l305.453-107.508c10.334-3.638,29.43-4.506,42.674-1.943l267.797,48.448    c13.248,2.563,16.32,8.999,5.992,12.636L397.821,709.541z"
         id="path7" /><path
         fill="#B3B3B3"
         d="M75.953,647.897c0.159,0.005,634.063-56.182,634.063-56.182"
         id="path9" /><g
         id="g11"><path
           fill="#F2F2F2"
           d="M397.834,705.396c-10.334,3.633-29.45,4.501-42.694,1.935L87.356,655.447     c-13.238-2.567-15.582-7.593-5.26-11.23l305.45-107.503c10.337-3.642,29.435-4.509,42.678-1.943L698,586.658     c13.244,2.566,15.612,7.592,5.278,11.225L397.834,705.396z"
           id="path13" /><polygon
           fill="#CCC8C8"
           points="116.406,644.717 414.094,539.942 683.744,592.188 386.056,696.964    "
           id="polygon15" /><polygon
           fill="#D8D8D8"
           points="386.056,696.964 683.744,592.188 414.094,539.942    "
           id="polygon17" /><path
           fill="#6D6E70"
           d="M227.815,679.076c5.816,1.127,14.213,0.741,18.738-0.845c4.522-1.594,3.5-3.808-2.316-4.935     c-5.793-1.119-14.206-0.736-18.728,0.854C220.984,675.74,222.019,677.953,227.815,679.076z"
           id="path19" /><path
           fill="#6D6E70"
           d="M533.453,560.089c-0.966-0.193-1.135-0.561-0.381-0.825l0,0c0.781-0.273,2.19-0.34,3.159-0.156     l41.856,8.116c0.972,0.185,1.149,0.552,0.371,0.825l0,0c-0.759,0.27-2.175,0.336-3.149,0.151L533.453,560.089z"
           id="path21" /></g></g><g
       id="g23"><path
         fill="#F6921E"
         d="M324.775,499.318"
         id="path25" /></g></g><linearGradient
     id="SVGID_1_"
     gradientUnits="userSpaceOnUse"
     x1="368.333"
     y1="101.6816"
     x2="407.8422"
     y2="601.5077"><stop
       offset="0.4477"
       style="stop-color:#FFFFFF"
       id="stop28" /><stop
       offset="0.535"
       style="stop-color:#FBFBFB;stop-opacity:0.8964"
       id="stop30" /><stop
       offset="0.614"
       style="stop-color:#F1F0F0;stop-opacity:0.8026"
       id="stop32" /><stop
       offset="0.6898"
       style="stop-color:#DFDEDE;stop-opacity:0.7126"
       id="stop34" /><stop
       offset="0.7636"
       style="stop-color:#C5C4C4;stop-opacity:0.6249"
       id="stop36" /><stop
       offset="0.8361"
       style="stop-color:#A4A3A3;stop-opacity:0.5389"
       id="stop38" /><stop
       offset="0.9074"
       style="stop-color:#7C7A7A;stop-opacity:0.4542"
       id="stop40" /><stop
       offset="0.9767"
       style="stop-color:#4D4A4B;stop-opacity:0.372"
       id="stop42" /><stop
       offset="1"
       style="stop-color:#3C3839;stop-opacity:0.3443"
       id="stop44" /><stop
       offset="1"
       style="stop-color:#000000;stop-opacity:0.3"
       id="stop46" /></linearGradient><path
     style="opacity:0.2;fill:url(#SVGID_1_)"
     d="M 683.75391,592.19141 116.41438,644.7209 75.992187,249.00391 178.57724,121.76529 289,223 l 126,-73 87,29 100,-47 c 0,0 108,47 107.99219,47.00391 z"
     id="polygon48"
     inkscape:connector-curvature="0"
     sodipodi:nodetypes="cccccccccc" /><circle
     fill="#E82E2E"
     cx="76"
     cy="358"
     r="10"
     id="circle50" /><line
     fill="#757474"
     stroke="#757575"
     stroke-width="2"
     stroke-miterlimit="10"
     x1="76"
     y1="358"
     x2="180"
     y2="472"
     id="line52" /><line
     fill="none"
     stroke="#757575"
     stroke-width="2"
     stroke-miterlimit="10"
     x1="180"
     y1="472"
     x2="289"
     y2="390"
     id="line54" /><line
     fill="none"
     stroke="#757575"
     stroke-width="2"
     stroke-miterlimit="10"
     x1="289"
     y1="390"
     x2="415"
     y2="435"
     id="line56" /><line
     fill="none"
     stroke="#757575"
     stroke-width="2"
     stroke-miterlimit="10"
     x1="415"
     y1="435"
     x2="502"
     y2="492"
     id="line58" /><line
     fill="none"
     stroke="#757575"
     stroke-width="2"
     stroke-miterlimit="10"
     x1="502"
     y1="492"
     x2="602"
     y2="400"
     id="line60" /><line
     fill="none"
     stroke="#757575"
     stroke-width="2"
     stroke-miterlimit="10"
     x1="602"
     y1="400"
     x2="710"
     y2="358"
     id="line62" /><circle
     fill="#E82E2E"
     cx="180"
     cy="472"
     r="10"
     id="circle64" /><circle
     fill="#E82E2E"
     cx="289"
     cy="390"
     r="10"
     id="circle66" /><circle
     fill="#E82E2E"
     cx="502"
     cy="492"
     r="10"
     id="circle68" /><circle
     fill="#E82E2E"
     cx="415"
     cy="435"
     r="10"
     id="circle70" /><circle
     fill="#E82E2E"
     cx="602"
     cy="400"
     r="10"
     id="circle72" /><circle
     fill="#E82E2E"
     cx="710"
     cy="358"
     r="10"
     id="circle74" /><line
     fill="none"
     stroke="#757575"
     stroke-width="2"
     stroke-miterlimit="10"
     x1="76"
     y1="249"
     x2="180"
     y2="122"
     id="line76" /><line
     fill="none"
     stroke="#757575"
     stroke-width="2"
     stroke-miterlimit="10"
     x1="180"
     y1="122"
     x2="289"
     y2="223"
     id="line78" /><line
     fill="none"
     stroke="#757575"
     stroke-width="2"
     stroke-miterlimit="10"
     x1="289"
     y1="223"
     x2="415"
     y2="150"
     id="line80" /><line
     fill="none"
     stroke="#757575"
     stroke-width="2"
     stroke-miterlimit="10"
     x1="415"
     y1="150"
     x2="502"
     y2="179"
     id="line82" /><line
     fill="none"
     stroke="#757575"
     stroke-width="2"
     stroke-miterlimit="10"
     x1="502"
     y1="179"
     x2="602"
     y2="132"
     id="line84" /><line
     fill="none"
     stroke="#757575"
     stroke-width="2"
     stroke-miterlimit="10"
     x1="602"
     y1="132"
     x2="710"
     y2="179"
     id="line86" /><circle
     fill="#E82E2E"
     cx="180"
     cy="122"
     r="10"
     id="circle88" /><circle
     fill="#E82E2E"
     cx="76"
     cy="249"
     r="10"
     id="circle90" /><circle
     fill="#E82E2E"
     cx="289"
     cy="223"
     r="10"
     id="circle92" /><circle
     fill="#E82E2E"
     cx="502"
     cy="179"
     r="10"
     id="circle94" /><circle
     fill="#E82E2E"
     cx="415"
     cy="150"
     r="10"
     id="circle96" /><circle
     fill="#E82E2E"
     cx="602"
     cy="132"
     r="10"
     id="circle98" /><circle
     fill="#E82E2E"
     cx="710"
     cy="179"
     r="10"
     id="circle100" /></svg>